STARTFONT 2.1
FONT -Adobe-Utopia-Regular-I-Normal--19-140-100-100-P-104-ISO10646-1
SIZE 14 100 100
FONTBOUNDINGBOX 27 32 -3 -9
COMMENT $Xorg: $
COMMENT ISO10646-1 extension by Markus Kuhn <mkuhn@acm.org>, 2001-03-20
STARTPROPERTIES 28
FOUNDRY "Adobe"
FAMILY_NAME "Utopia"
WEIGHT_NAME "Regular"
SLANT "I"
SETWIDTH_NAME "Normal"
ADD_STYLE_NAME ""
PIXEL_SIZE 19
POINT_SIZE 140
RESOLUTION_X 100
RESOLUTION_Y 100
SPACING "P"
AVERAGE_WIDTH 104
CHARSET_REGISTRY "ISO10646"
CHARSET_ENCODING "1"
CAP_HEIGHT 13
X_HEIGHT 10
RELATIVE_SETWIDTH 50
RELATIVE_WEIGHT 50
WEIGHT 130
FACE_NAME "Utopia Italic"
COPYRIGHT "Copyright (c) 1989, 1991 Adobe Systems Incorporated.  All Rights Reserved."
NOTICE "Utopia is a registered trademark of Adobe Systems Incorporated."
DESTINATION 0
FONT_ASCENT 18
FONT_DESCENT 5
DEFAULT_CHAR 0
_ADOBE_PSFONT "Utopia-Italic"
_DEC_DEVICE_FONTNAMES "PS=Utopia-Italic"
ENDPROPERTIES
CHARS 723
STARTCHAR char0
ENCODING 0
SWIDTH 775 0
DWIDTH 15 0
BBX 17 13 1 0
BITMAP
AAAA80
000000
800080
000000
800080
000000
800080
000000
800080
000000
800080
000000
AAAA80
ENDCHAR
STARTCHAR space
ENCODING 32
SWIDTH 225 0
DWIDTH 4 0
BBX 0 0 0 0
BITMAP
ENDCHAR
STARTCHAR exclam
ENCODING 33
SWIDTH 240 0
DWIDTH 5 0
BBX 5 14 1 0
BITMAP
18
18
30
30
30
20
20
20
20
40
00
00
C0
C0
ENDCHAR
STARTCHAR quotedbl
ENCODING 34
SWIDTH 402 0
DWIDTH 8 0
BBX 6 5 4 9
BITMAP
4C
CC
C8
88
90
ENDCHAR
STARTCHAR numbersign
ENCODING 35
SWIDTH 530 0
DWIDTH 10 0
BBX 10 14 2 -1
BITMAP
0480
0880
0880
0900
7FC0
1100
1200
3200
FF80
2400
6400
4400
4800
8000
ENDCHAR
STARTCHAR dollar
ENCODING 36
SWIDTH 530 0
DWIDTH 10 0
BBX 11 16 1 -2
BITMAP
0100
0F80
1A60
3260
3200
3400
1C00
0E00
0700
0980
0980
C980
6B00
1C00
1000
1000
ENDCHAR
STARTCHAR percent
ENCODING 37
SWIDTH 826 0
DWIDTH 16 0
BBX 14 14 2 -1
BITMAP
3C08
67F0
4620
C620
C440
4C80
7978
02C8
048C
098C
1188
1098
20F0
4000
ENDCHAR
STARTCHAR ampersand
ENCODING 38
SWIDTH 725 0
DWIDTH 14 0
BBX 13 13 2 0
BITMAP
0E00
1180
3180
3100
3610
1838
3C30
4E20
C740
C380
C1C0
42E0
3C30
ENDCHAR
STARTCHAR quotesingle
ENCODING 39
SWIDTH 216 0
DWIDTH 4 0
BBX 2 5 4 9
BITMAP
C0
C0
80
80
80
ENDCHAR
STARTCHAR parenleft
ENCODING 40
SWIDTH 350 0
DWIDTH 7 0
BBX 6 16 3 -2
BITMAP
04
18
30
20
60
40
40
C0
80
80
80
80
80
80
40
60
ENDCHAR
STARTCHAR parenright
ENCODING 41
SWIDTH 350 0
DWIDTH 7 0
BBX 6 17 0 -3
BITMAP
10
08
08
04
04
04
04
04
04
0C
08
08
18
10
30
60
80
ENDCHAR
STARTCHAR asterisk
ENCODING 42
SWIDTH 412 0
DWIDTH 8 0
BBX 7 7 3 7
BITMAP
18
52
7E
10
FC
94
30
ENDCHAR
STARTCHAR plus
ENCODING 43
SWIDTH 570 0
DWIDTH 11 0
BBX 9 10 2 0
BITMAP
0800
0800
0800
0800
0800
FF80
0800
0800
0800
0800
ENDCHAR
STARTCHAR comma
ENCODING 44
SWIDTH 265 0
DWIDTH 5 0
BBX 3 5 1 -2
BITMAP
60
60
60
40
80
ENDCHAR
STARTCHAR hyphen
ENCODING 45
SWIDTH 392 0
DWIDTH 8 0
BBX 5 1 2 4
BITMAP
F8
ENDCHAR
STARTCHAR period
ENCODING 46
SWIDTH 265 0
DWIDTH 5 0
BBX 2 2 2 0
BITMAP
C0
C0
ENDCHAR
STARTCHAR slash
ENCODING 47
SWIDTH 270 0
DWIDTH 5 0
BBX 7 14 0 0
BITMAP
06
04
04
0C
08
18
10
10
30
20
60
40
40
C0
ENDCHAR
STARTCHAR zero
ENCODING 48
SWIDTH 530 0
DWIDTH 10 0
BBX 9 13 2 0
BITMAP
0E00
1100
3180
6180
6180
6180
C180
C300
C300
C300
C600
4400
3800
ENDCHAR
STARTCHAR one
ENCODING 49
SWIDTH 530 0
DWIDTH 10 0
BBX 7 13 2 0
BITMAP
06
1E
04
0C
0C
0C
08
08
18
18
18
10
FC
ENDCHAR
STARTCHAR two
ENCODING 50
SWIDTH 530 0
DWIDTH 10 0
BBX 10 13 1 0
BITMAP
0F00
1880
30C0
30C0
00C0
0180
0300
0400
1800
2000
4080
FF00
FF00
ENDCHAR
STARTCHAR three
ENCODING 51
SWIDTH 530 0
DWIDTH 10 0
BBX 10 13 1 0
BITMAP
0F00
18C0
10C0
00C0
0380
1C00
0300
0180
0180
4180
C100
4300
3C00
ENDCHAR
STARTCHAR four
ENCODING 52
SWIDTH 530 0
DWIDTH 10 0
BBX 9 13 1 0
BITMAP
0080
0180
0380
0580
0900
1300
2300
4300
FF80
0200
0600
0600
1F00
ENDCHAR
STARTCHAR five
ENCODING 53
SWIDTH 530 0
DWIDTH 10 0
BBX 10 13 1 0
BITMAP
1FC0
1F80
1000
1000
1000
2E00
3300
0180
0180
0180
C100
6300
3C00
ENDCHAR
STARTCHAR six
ENCODING 54
SWIDTH 530 0
DWIDTH 10 0
BBX 10 13 2 0
BITMAP
0700
1880
30C0
2000
6000
7E00
6300
C180
C180
C180
C300
6300
3C00
ENDCHAR
STARTCHAR seven
ENCODING 55
SWIDTH 530 0
DWIDTH 10 0
BBX 9 13 3 0
BITMAP
7F80
FF80
8100
0300
0600
0C00
0800
1000
2000
6000
6000
C000
4000
ENDCHAR
STARTCHAR eight
ENCODING 56
SWIDTH 530 0
DWIDTH 10 0
BBX 9 13 2 0
BITMAP
1E00
3100
6180
6180
2300
3C00
6600
4300
C300
C300
C200
6600
3C00
ENDCHAR
STARTCHAR nine
ENCODING 57
SWIDTH 530 0
DWIDTH 10 0
BBX 10 13 1 0
BITMAP
0F00
3180
2080
60C0
60C0
60C0
31C0
1E80
0180
0180
C300
E600
3C00
ENDCHAR
STARTCHAR colon
ENCODING 58
SWIDTH 265 0
DWIDTH 5 0
BBX 4 10 2 0
BITMAP
30
30
20
00
00
00
00
40
C0
C0
ENDCHAR
STARTCHAR semicolon
ENCODING 59
SWIDTH 265 0
DWIDTH 5 0
BBX 5 12 1 -2
BITMAP
18
38
00
00
00
00
40
60
60
40
80
80
ENDCHAR
STARTCHAR less
ENCODING 60
SWIDTH 570 0
DWIDTH 11 0
BBX 9 10 2 0
BITMAP
0080
0380
0F00
3800
E000
8000
7000
1C00
0700
0080
ENDCHAR
STARTCHAR equal
ENCODING 61
SWIDTH 570 0
DWIDTH 11 0
BBX 9 5 2 2
BITMAP
FF80
0000
0000
0000
FF80
ENDCHAR
STARTCHAR greater
ENCODING 62
SWIDTH 570 0
DWIDTH 11 0
BBX 9 10 2 0
BITMAP
8000
E000
7800
0E00
0380
0080
0700
1C00
7000
8000
ENDCHAR
STARTCHAR question
ENCODING 63
SWIDTH 425 0
DWIDTH 8 0
BBX 7 14 3 0
BITMAP
38
66
C6
06
0C
18
20
C0
C0
70
00
00
E0
C0
ENDCHAR
STARTCHAR at
ENCODING 64
SWIDTH 794 0
DWIDTH 15 0
BBX 14 14 2 0
BITMAP
03E0
0C10
3808
30E4
6324
4624
C644
C444
CCC8
CD48
4670
6000
3820
07C0
ENDCHAR
STARTCHAR A
ENCODING 65
SWIDTH 624 0
DWIDTH 12 0
BBX 13 14 0 0
BITMAP
00C0
00C0
0140
0140
0260
0260
0460
0460
0FE0
0860
1020
1020
2030
F0F8
ENDCHAR
STARTCHAR B
ENCODING 66
SWIDTH 632 0
DWIDTH 12 0
BBX 12 14 1 0
BITMAP
1FC0
0C60
0C30
0C30
0830
08E0
1F00
18C0
1860
1060
3060
3060
30C0
FF00
ENDCHAR
STARTCHAR C
ENCODING 67
SWIDTH 661 0
DWIDTH 13 0
BBX 13 14 2 0
BITMAP
07E0
1C38
3010
6010
6000
6000
C000
C000
C000
C000
C020
6040
30C0
0F00
ENDCHAR
STARTCHAR D
ENCODING 68
SWIDTH 763 0
DWIDTH 15 0
BBX 15 14 1 0
BITMAP
1FE0
0618
040C
0C06
0C06
0C06
0806
1806
180C
180C
181C
3018
3060
FF80
ENDCHAR
STARTCHAR E
ENCODING 69
SWIDTH 596 0
DWIDTH 12 0
BBX 13 14 1 0
BITMAP
3FF8
0C10
0C10
0C10
1800
1820
1860
1FC0
1840
3800
3000
3020
3060
FFC0
ENDCHAR
STARTCHAR F
ENCODING 70
SWIDTH 571 0
DWIDTH 11 0
BBX 13 14 1 0
BITMAP
3FF8
0C10
0C10
0C10
1800
1820
1860
1FC0
1840
3800
3000
3000
3000
FC00
ENDCHAR
STARTCHAR G
ENCODING 71
SWIDTH 709 0
DWIDTH 14 0
BBX 13 14 2 0
BITMAP
03E0
0C38
3010
7010
6000
6000
C000
C000
C0F8
C030
C020
6060
3060
0F80
ENDCHAR
STARTCHAR H
ENCODING 72
SWIDTH 775 0
DWIDTH 15 0
BBX 17 14 1 0
BITMAP
1F1F80
060600
0C0600
0C0400
0C0C00
0C0C00
180C00
1FFC00
180800
181800
181800
301800
303000
FC7C00
ENDCHAR
STARTCHAR I
ENCODING 73
SWIDTH 345 0
DWIDTH 7 0
BBX 8 14 1 0
BITMAP
1F
0C
0C
0C
08
18
18
18
18
10
30
30
30
F8
ENDCHAR
STARTCHAR J
ENCODING 74
SWIDTH 352 0
DWIDTH 7 0
BBX 10 17 -1 -3
BITMAP
07C0
0300
0300
0300
0200
0600
0600
0600
0400
0C00
0C00
0C00
0C00
1800
1800
3000
E000
ENDCHAR
STARTCHAR K
ENCODING 75
SWIDTH 650 0
DWIDTH 13 0
BBX 15 14 1 0
BITMAP
1F3E
0C18
0C20
0C40
0980
0A00
1E00
1E00
1B00
1380
3180
30C0
3060
F830
ENDCHAR
STARTCHAR L
ENCODING 76
SWIDTH 565 0
DWIDTH 11 0
BBX 11 14 1 0
BITMAP
1F00
0C00
0C00
0C00
0C00
0800
1800
1800
1800
1000
3020
3020
3040
FFC0
ENDCHAR
STARTCHAR M
ENCODING 77
SWIDTH 920 0
DWIDTH 18 0
BBX 19 14 1 0
BITMAP
3C01E0
0E0180
0E0380
0E0580
160580
130900
130B00
131300
132300
232300
21C600
218600
618600
F11F00
ENDCHAR
STARTCHAR N
ENCODING 78
SWIDTH 763 0
DWIDTH 15 0
BBX 16 14 1 0
BITMAP
3C0F
0E06
0E04
0B04
1304
1184
1188
10C8
20C8
20E8
2070
2070
6030
F030
ENDCHAR
STARTCHAR O
ENCODING 79
SWIDTH 753 0
DWIDTH 15 0
BBX 13 14 2 0
BITMAP
07C0
1820
3030
7018
6018
6018
C018
C018
C030
C030
C030
6060
30C0
1F00
ENDCHAR
STARTCHAR P
ENCODING 80
SWIDTH 614 0
DWIDTH 12 0
BBX 12 14 1 0
BITMAP
3FC0
0C60
0C30
0C30
1830
1830
1860
18C0
3F80
3800
3000
3000
3000
FC00
ENDCHAR
STARTCHAR Q
ENCODING 81
SWIDTH 753 0
DWIDTH 15 0
BBX 13 18 2 -4
BITMAP
07C0
1820
3030
7018
6018
6018
C018
C018
C030
C030
C030
6060
30C0
1F00
0600
0300
0180
00E0
ENDCHAR
STARTCHAR R
ENCODING 82
SWIDTH 640 0
DWIDTH 12 0
BBX 12 14 1 0
BITMAP
1FC0
0C60
0C30
0C30
0830
0860
18C0
1F80
18C0
18C0
30C0
30C0
30C0
F870
ENDCHAR
STARTCHAR S
ENCODING 83
SWIDTH 533 0
DWIDTH 10 0
BBX 9 14 2 0
BITMAP
1E00
3180
6100
6100
6000
3000
1C00
0E00
0700
8300
8300
8200
C600
3800
ENDCHAR
STARTCHAR T
ENCODING 84
SWIDTH 606 0
DWIDTH 12 0
BBX 12 14 3 0
BITMAP
FFF0
8420
8C20
0C00
0C00
0C00
1800
1800
1800
1800
1000
3000
3000
FC00
ENDCHAR
STARTCHAR U
ENCODING 85
SWIDTH 794 0
DWIDTH 15 0
BBX 15 14 3 0
BITMAP
FC7E
3018
3010
6030
6030
6030
6020
4060
C060
C060
C0C0
C0C0
6180
3E00
ENDCHAR
STARTCHAR V
ENCODING 86
SWIDTH 637 0
DWIDTH 12 0
BBX 13 14 3 0
BITMAP
F878
6020
2060
2040
3080
3080
3100
3100
3200
3200
1400
1400
1800
1000
ENDCHAR
STARTCHAR W
ENCODING 87
SWIDTH 946 0
DWIDTH 18 0
BBX 19 14 2 0
BITMAP
FC01E0
702080
306080
30E100
30E100
316200
316200
326400
326400
342400
342800
382800
303000
303000
ENDCHAR
STARTCHAR X
ENCODING 88
SWIDTH 632 0
DWIDTH 12 0
BBX 15 14 0 0
BITMAP
1F3E
0E18
0610
0620
0340
0380
0180
0380
0280
04C0
08C0
1060
3060
F8F8
ENDCHAR
STARTCHAR Y
ENCODING 89
SWIDTH 591 0
DWIDTH 11 0
BBX 13 14 2 0
BITMAP
F878
3020
3060
3040
1880
1900
1A00
0E00
0C00
0C00
1800
1800
1800
7E00
ENDCHAR
STARTCHAR Z
ENCODING 90
SWIDTH 622 0
DWIDTH 12 0
BBX 14 14 0 0
BITMAP
0FFC
081C
0838
1070
00E0
01C0
0380
0700
0600
0C00
1810
3010
6020
FFE0
ENDCHAR
STARTCHAR bracketleft
ENCODING 91
SWIDTH 330 0
DWIDTH 6 0
BBX 7 17 2 -3
BITMAP
0E
18
18
10
10
10
30
20
20
20
20
60
40
40
40
C0
E0
ENDCHAR
STARTCHAR backslash
ENCODING 92
SWIDTH 390 0
DWIDTH 8 0
BBX 5 14 3 0
BITMAP
80
C0
40
40
40
60
20
20
30
10
10
10
18
08
ENDCHAR
STARTCHAR bracketright
ENCODING 93
SWIDTH 330 0
DWIDTH 6 0
BBX 7 17 0 -3
BITMAP
0E
06
04
04
04
0C
08
08
08
08
18
10
10
10
30
30
E0
ENDCHAR
STARTCHAR asciicircum
ENCODING 94
SWIDTH 570 0
DWIDTH 11 0
BBX 9 9 2 4
BITMAP
0800
1C00
1400
3600
2200
2200
6300
4100
C180
ENDCHAR
STARTCHAR underscore
ENCODING 95
SWIDTH 500 0
DWIDTH 10 0
BBX 10 1 0 -2
BITMAP
FFC0
ENDCHAR
STARTCHAR grave
ENCODING 96
SWIDTH 400 0
DWIDTH 8 0
BBX 4 4 4 10
BITMAP
80
C0
20
10
ENDCHAR
STARTCHAR a
ENCODING 97
SWIDTH 561 0
DWIDTH 11 0
BBX 10 10 1 0
BITMAP
07C0
18C0
3080
6180
6180
C380
C300
C740
CB40
7380
ENDCHAR
STARTCHAR b
ENCODING 98
SWIDTH 559 0
DWIDTH 11 0
BBX 10 14 2 0
BITMAP
1800
7800
1000
1000
3380
34C0
28C0
30C0
60C0
6180
6180
4300
E600
BC00
ENDCHAR
STARTCHAR c
ENCODING 99
SWIDTH 441 0
DWIDTH 9 0
BBX 8 10 2 0
BITMAP
0E
33
63
60
C0
C0
C0
C2
C4
78
ENDCHAR
STARTCHAR d
ENCODING 100
SWIDTH 587 0
DWIDTH 11 0
BBX 12 14 1 0
BITMAP
0030
00F0
0020
0060
07E0
1C60
3040
60C0
60C0
C1C0
C280
C3A0
CDA0
71C0
ENDCHAR
STARTCHAR e
ENCODING 101
SWIDTH 453 0
DWIDTH 9 0
BBX 8 10 2 0
BITMAP
0E
13
23
62
CC
F0
C0
C2
C4
78
ENDCHAR
STARTCHAR f
ENCODING 102
SWIDTH 315 0
DWIDTH 6 0
BBX 12 19 -1 -5
BITMAP
00E0
0130
0300
0300
0FC0
0600
0600
0600
0400
0C00
0C00
0C00
0C00
0800
0800
1800
1000
D000
6000
ENDCHAR
STARTCHAR g
ENCODING 103
SWIDTH 499 0
DWIDTH 10 0
BBX 12 15 0 -5
BITMAP
0F30
18E0
30C0
30C0
30C0
1180
0F00
1000
3C00
1F80
61C0
C0C0
C0C0
6180
3E00
ENDCHAR
STARTCHAR h
ENCODING 104
SWIDTH 607 0
DWIDTH 12 0
BBX 10 14 2 0
BITMAP
0800
3800
1800
1000
3380
34C0
38C0
2880
3180
6180
6100
6340
4340
C380
ENDCHAR
STARTCHAR i
ENCODING 105
SWIDTH 317 0
DWIDTH 6 0
BBX 5 14 2 0
BITMAP
18
18
00
00
30
F0
30
20
60
60
40
C8
D0
E0
ENDCHAR
STARTCHAR j
ENCODING 106
SWIDTH 309 0
DWIDTH 6 0
BBX 8 19 -1 -5
BITMAP
03
03
02
00
02
0E
06
06
06
04
04
0C
0C
0C
08
18
18
D0
60
ENDCHAR
STARTCHAR k
ENCODING 107
SWIDTH 545 0
DWIDTH 11 0
BBX 10 14 2 0
BITMAP
0800
3800
1800
1000
30C0
3380
3400
2800
6800
7800
6C00
4C80
C680
C700
ENDCHAR
STARTCHAR l
ENCODING 108
SWIDTH 306 0
DWIDTH 6 0
BBX 5 14 2 0
BITMAP
18
78
18
10
30
30
20
20
60
60
40
C8
D0
E0
ENDCHAR
STARTCHAR m
ENCODING 109
SWIDTH 912 0
DWIDTH 18 0
BBX 16 10 2 0
BITMAP
1B8C
74D6
38E6
38C6
30C4
2184
618C
618D
410D
C30E
ENDCHAR
STARTCHAR n
ENCODING 110
SWIDTH 618 0
DWIDTH 12 0
BBX 10 10 2 0
BITMAP
1380
74C0
38C0
2880
3180
6180
6100
6340
4340
C380
ENDCHAR
STARTCHAR o
ENCODING 111
SWIDTH 537 0
DWIDTH 10 0
BBX 9 10 2 0
BITMAP
0E00
3100
6180
6180
E180
C380
C300
C300
4600
3800
ENDCHAR
STARTCHAR p
ENCODING 112
SWIDTH 590 0
DWIDTH 11 0
BBX 11 15 1 -5
BITMAP
19C0
7A60
1460
1860
3060
30C0
30C0
2180
6300
7E00
6000
4000
4000
C000
C000
ENDCHAR
STARTCHAR q
ENCODING 113
SWIDTH 559 0
DWIDTH 11 0
BBX 10 15 1 -5
BITMAP
0740
18C0
30C0
6080
6180
C180
C380
C500
CB00
7300
0300
0200
0200
0600
0400
ENDCHAR
STARTCHAR r
ENCODING 114
SWIDTH 402 0
DWIDTH 8 0
BBX 7 10 2 0
BITMAP
32
EE
30
30
60
60
40
40
C0
80
ENDCHAR
STARTCHAR s
ENCODING 115
SWIDTH 389 0
DWIDTH 8 0
BBX 8 10 1 0
BITMAP
1E
23
21
30
18
1C
06
C6
44
38
ENDCHAR
STARTCHAR t
ENCODING 116
SWIDTH 341 0
DWIDTH 7 0
BBX 6 13 2 0
BITMAP
08
10
30
FC
30
20
60
60
60
40
C8
D0
E0
ENDCHAR
STARTCHAR u
ENCODING 117
SWIDTH 618 0
DWIDTH 12 0
BBX 11 10 2 0
BITMAP
3040
F0C0
2080
6180
6180
6380
4300
C720
CB40
F380
ENDCHAR
STARTCHAR v
ENCODING 118
SWIDTH 510 0
DWIDTH 10 0
BBX 9 10 2 0
BITMAP
3080
E180
6180
6100
6100
4200
4200
C400
D800
6000
ENDCHAR
STARTCHAR w
ENCODING 119
SWIDTH 785 0
DWIDTH 15 0
BBX 15 10 2 0
BITMAP
30C4
E186
2186
6184
6184
4308
4708
C710
DB20
61C0
ENDCHAR
STARTCHAR x
ENCODING 120
SWIDTH 516 0
DWIDTH 10 0
BBX 10 10 1 0
BITMAP
18C0
79C0
0A00
0A00
0C00
0C00
1400
1640
E680
C300
ENDCHAR
STARTCHAR y
ENCODING 121
SWIDTH 468 0
DWIDTH 9 0
BBX 11 15 0 -5
BITMAP
1820
7860
1860
0840
08C0
0C80
0D00
0D00
0E00
0E00
0C00
0800
0800
D000
E000
ENDCHAR
STARTCHAR z
ENCODING 122
SWIDTH 468 0
DWIDTH 9 0
BBX 9 10 1 0
BITMAP
3F80
4300
4600
0400
0C00
1800
3080
6100
FF00
9E00
ENDCHAR
STARTCHAR braceleft
ENCODING 123
SWIDTH 340 0
DWIDTH 7 0
BBX 5 17 3 -3
BITMAP
18
10
20
20
20
20
20
40
C0
40
40
40
C0
80
80
80
40
ENDCHAR
STARTCHAR bar
ENCODING 124
SWIDTH 270 0
DWIDTH 5 0
BBX 1 14 3 0
BITMAP
80
80
80
80
80
80
80
80
80
80
80
80
80
80
ENDCHAR
STARTCHAR braceright
ENCODING 125
SWIDTH 340 0
DWIDTH 7 0
BBX 5 17 1 -3
BITMAP
10
08
08
08
18
10
10
10
08
10
20
20
20
20
20
40
C0
ENDCHAR
STARTCHAR asciitilde
ENCODING 126
SWIDTH 570 0
DWIDTH 11 0
BBX 8 3 3 3
BITMAP
21
7E
84
ENDCHAR
STARTCHAR space
ENCODING 160
SWIDTH 225 0
DWIDTH 4 0
BBX 0 0 0 0
BITMAP
ENDCHAR
STARTCHAR exclamdown
ENCODING 161
SWIDTH 240 0
DWIDTH 5 0
BBX 5 14 0 -4
BITMAP
18
18
00
00
10
20
20
20
20
60
60
60
C0
C0
ENDCHAR
STARTCHAR cent
ENCODING 162
SWIDTH 530 0
DWIDTH 10 0
BBX 10 13 2 0
BITMAP
0200
0F00
32C0
64C0
6400
C400
C800
C800
C880
6B00
3C00
1000
1000
ENDCHAR
STARTCHAR sterling
ENCODING 163
SWIDTH 530 0
DWIDTH 10 0
BBX 11 13 1 0
BITMAP
0780
0CE0
1840
1800
1800
0800
7F80
0C00
0C00
0800
0800
1040
FF80
ENDCHAR
STARTCHAR currency
ENCODING 164
SWIDTH 530 0
DWIDTH 10 0
BBX 9 9 2 2
BITMAP
BE80
6300
C180
8080
8080
8080
C180
6300
BE80
ENDCHAR
STARTCHAR yen
ENCODING 165
SWIDTH 530 0
DWIDTH 10 0
BBX 11 13 2 0
BITMAP
79E0
3080
3100
3100
1200
1C00
7F00
1800
1800
FF00
1000
3000
7C00
ENDCHAR
STARTCHAR brokenbar
ENCODING 166
SWIDTH 270 0
DWIDTH 5 0
BBX 1 14 3 0
BITMAP
80
80
80
80
80
00
00
80
80
80
80
80
80
80
ENDCHAR
STARTCHAR section
ENCODING 167
SWIDTH 530 0
DWIDTH 10 0
BBX 10 16 1 -2
BITMAP
0780
04C0
0840
1800
2C00
4700
4380
60C0
3040
3840
0C40
0680
0300
C200
4400
3800
ENDCHAR
STARTCHAR dieresis
ENCODING 168
SWIDTH 400 0
DWIDTH 8 0
BBX 6 2 4 11
BITMAP
CC
CC
ENDCHAR
STARTCHAR copyright
ENCODING 169
SWIDTH 836 0
DWIDTH 16 0
BBX 13 14 3 0
BITMAP
0F80
1040
2030
4790
4C48
9848
9808
9808
9848
8C48
4790
2030
1060
0F80
ENDCHAR
STARTCHAR ordfeminine
ENCODING 170
SWIDTH 425 0
DWIDTH 8 0
BBX 8 7 2 5
BITMAP
0E
32
66
66
CC
DD
66
ENDCHAR
STARTCHAR guillemotleft
ENCODING 171
SWIDTH 462 0
DWIDTH 9 0
BBX 8 8 2 1
BITMAP
11
22
66
CC
CC
44
24
22
ENDCHAR
STARTCHAR logicalnot
ENCODING 172
SWIDTH 570 0
DWIDTH 11 0
BBX 9 5 2 2
BITMAP
FF80
0080
0080
0080
0080
ENDCHAR
STARTCHAR hyphen
ENCODING 173
SWIDTH 392 0
DWIDTH 8 0
BBX 5 1 2 4
BITMAP
F8
ENDCHAR
STARTCHAR registered
ENCODING 174
SWIDTH 836 0
DWIDTH 16 0
BBX 13 14 3 0
BITMAP
0F80
1040
2020
5F10
4890
8888
8988
8E08
8988
8888
5CD0
6020
3040
0F80
ENDCHAR
STARTCHAR macron
ENCODING 175
SWIDTH 400 0
DWIDTH 8 0
BBX 6 1 4 12
BITMAP
FC
ENDCHAR
STARTCHAR degree
ENCODING 176
SWIDTH 400 0
DWIDTH 8 0
BBX 5 5 4 8
BITMAP
70
88
88
88
70
ENDCHAR
STARTCHAR plusminus
ENCODING 177
SWIDTH 570 0
DWIDTH 11 0
BBX 9 11 2 0
BITMAP
0800
0800
0800
0800
FF80
0800
0800
0800
0800
0000
FF80
ENDCHAR
STARTCHAR twosuperior
ENCODING 178
SWIDTH 370 0
DWIDTH 7 0
BBX 8 8 1 5
BITMAP
1E
32
23
06
0C
10
62
FE
ENDCHAR
STARTCHAR threesuperior
ENCODING 179
SWIDTH 370 0
DWIDTH 7 0
BBX 6 8 2 5
BITMAP
38
CC
08
78
08
8C
C8
70
ENDCHAR
STARTCHAR acute
ENCODING 180
SWIDTH 400 0
DWIDTH 8 0
BBX 4 4 5 10
BITMAP
10
30
40
80
ENDCHAR
STARTCHAR mu
ENCODING 181
SWIDTH 618 0
DWIDTH 12 0
BBX 12 14 1 -4
BITMAP
1820
7860
1840
10C0
10C0
31C0
3180
2390
25A0
79C0
4000
4000
C000
C000
ENDCHAR
STARTCHAR paragraph
ENCODING 182
SWIDTH 560 0
DWIDTH 11 0
BBX 10 16 3 -2
BITMAP
19C0
3900
7B00
FB00
F200
F200
F200
7600
3600
0400
0400
0400
0C00
0C00
0800
3800
ENDCHAR
STARTCHAR periodcentered
ENCODING 183
SWIDTH 265 0
DWIDTH 5 0
BBX 2 2 3 4
BITMAP
C0
C0
ENDCHAR
STARTCHAR cedilla
ENCODING 184
SWIDTH 400 0
DWIDTH 8 0
BBX 3 6 2 -5
BITMAP
20
40
60
20
60
C0
ENDCHAR
STARTCHAR onesuperior
ENCODING 185
SWIDTH 370 0
DWIDTH 7 0
BBX 5 8 2 5
BITMAP
18
38
10
10
30
30
20
F8
ENDCHAR
STARTCHAR ordmasculine
ENCODING 186
SWIDTH 389 0
DWIDTH 8 0
BBX 7 7 2 5
BITMAP
18
66
46
C6
C4
4C
70
ENDCHAR
STARTCHAR guillemotright
ENCODING 187
SWIDTH 462 0
DWIDTH 9 0
BBX 8 8 1 1
BITMAP
44
24
22
33
33
66
44
88
ENDCHAR
STARTCHAR onequarter
ENCODING 188
SWIDTH 890 0
DWIDTH 17 0
BBX 14 15 2 -1
BITMAP
0004
1808
2810
1810
1820
1040
308C
3118
F928
0248
0498
08FC
1010
1078
2000
ENDCHAR
STARTCHAR onehalf
ENCODING 189
SWIDTH 890 0
DWIDTH 17 0
BBX 16 15 1 -1
BITMAP
0004
180C
2818
1830
1820
1040
309E
31B2
F923
0206
040C
0810
1062
10FE
2000
ENDCHAR
STARTCHAR threequarters
ENCODING 190
SWIDTH 890 0
DWIDTH 17 0
BBX 14 14 3 0
BITMAP
0008
3808
CC18
0830
7860
0840
8C88
C998
7328
0258
0490
08FC
1010
3078
ENDCHAR
STARTCHAR questiondown
ENCODING 191
SWIDTH 425 0
DWIDTH 8 0
BBX 7 14 1 -4
BITMAP
06
0E
00
00
38
0C
0C
10
20
60
C0
CC
58
70
ENDCHAR
STARTCHAR Agrave
ENCODING 192
SWIDTH 624 0
DWIDTH 12 0
BBX 13 18 0 0
BITMAP
0100
0380
03E0
0060
0040
00C0
0140
0160
0260
0260
0460
0460
0FE0
0860
1020
3020
2030
F0F8
ENDCHAR
STARTCHAR Aacute
ENCODING 193
SWIDTH 624 0
DWIDTH 12 0
BBX 13 17 0 0
BITMAP
0010
0070
00C0
0040
00C0
0140
0160
0260
0260
0460
0460
0FE0
0860
1020
3020
2030
F0F8
ENDCHAR
STARTCHAR Acircumflex
ENCODING 194
SWIDTH 624 0
DWIDTH 12 0
BBX 13 17 0 0
BITMAP
0040
00E0
0130
0250
00C0
0140
0160
0260
0260
0460
0460
0FE0
0860
1020
3020
2030
F0F8
ENDCHAR
STARTCHAR Atilde
ENCODING 195
SWIDTH 624 0
DWIDTH 12 0
BBX 13 16 0 0
BITMAP
0188
0270
00C0
00C0
0140
0140
0260
0260
0460
0460
0FE0
0860
1020
1020
2030
F0F8
ENDCHAR
STARTCHAR Adieresis
ENCODING 196
SWIDTH 624 0
DWIDTH 12 0
BBX 12 16 0 0
BITMAP
0330
0330
00C0
01C0
01C0
02C0
02C0
04C0
04C0
0840
0FE0
1060
1060
2060
2060
F0F0
ENDCHAR
STARTCHAR Aring
ENCODING 197
SWIDTH 624 0
DWIDTH 12 0
BBX 12 17 0 0
BITMAP
00C0
0120
0120
00C0
00C0
01C0
02C0
02C0
02C0
04C0
0440
0FC0
0860
1060
2060
2060
F0F0
ENDCHAR
STARTCHAR AE
ENCODING 198
SWIDTH 880 0
DWIDTH 17 0
BBX 20 14 -1 0
BITMAP
007FF0
003820
005820
005820
009000
011040
0130C0
03FF80
043080
0C3000
186000
106040
2060C0
F9FF80
ENDCHAR
STARTCHAR Ccedilla
ENCODING 199
SWIDTH 661 0
DWIDTH 13 0
BBX 13 19 2 -5
BITMAP
07E0
1C38
3010
6010
6000
6000
C000
C000
C000
C000
C020
6040
30C0
0F00
0800
0C00
0400
0600
1C00
ENDCHAR
STARTCHAR Egrave
ENCODING 200
SWIDTH 596 0
DWIDTH 12 0
BBX 13 18 1 0
BITMAP
0400
0700
07C0
00C0
3FF8
0C10
0C10
0C10
1800
1820
1860
1FC0
1840
3800
3000
3020
3060
FFC0
ENDCHAR
STARTCHAR Eacute
ENCODING 201
SWIDTH 596 0
DWIDTH 12 0
BBX 13 17 1 0
BITMAP
0020
00E0
0180
3FF8
0C10
0C10
0C10
1800
1820
1860
1FC0
1840
3800
3000
3020
3060
FFC0
ENDCHAR
STARTCHAR Ecircumflex
ENCODING 202
SWIDTH 596 0
DWIDTH 12 0
BBX 13 17 1 0
BITMAP
0080
01C0
0660
3BD8
0C30
0C10
0C10
1800
1820
1860
1FC0
1840
3800
3000
3020
3060
FFC0
ENDCHAR
STARTCHAR Edieresis
ENCODING 203
SWIDTH 596 0
DWIDTH 12 0
BBX 13 16 1 0
BITMAP
0660
0660
3FF8
0C10
0C10
0C10
1800
1820
1860
1FC0
1840
3800
3000
3020
3060
FFC0
ENDCHAR
STARTCHAR Igrave
ENCODING 204
SWIDTH 345 0
DWIDTH 7 0
BBX 8 18 1 0
BITMAP
10
1C
1E
02
1F
0C
0C
0C
08
18
18
18
18
10
30
30
30
F8
ENDCHAR
STARTCHAR Iacute
ENCODING 205
SWIDTH 345 0
DWIDTH 7 0
BBX 8 17 1 0
BITMAP
01
07
0C
1F
06
0C
0C
0C
0C
18
18
18
18
10
30
30
FC
ENDCHAR
STARTCHAR Icircumflex
ENCODING 206
SWIDTH 345 0
DWIDTH 7 0
BBX 9 17 1 0
BITMAP
0200
0700
1980
3F80
0E00
0C00
0C00
0C00
0C00
1800
1800
1800
1800
1000
3000
3000
FC00
ENDCHAR
STARTCHAR Idieresis
ENCODING 207
SWIDTH 345 0
DWIDTH 7 0
BBX 9 16 1 0
BITMAP
1980
1980
1F00
0400
0C00
0C00
0C00
0800
0800
1800
1800
1800
1000
3000
3000
FC00
ENDCHAR
STARTCHAR Eth
ENCODING 208
SWIDTH 770 0
DWIDTH 15 0
BBX 15 14 1 0
BITMAP
1FE0
0618
040C
0C04
0C06
0C06
0C06
7F06
1806
180C
180C
1018
3070
FF80
ENDCHAR
STARTCHAR Ntilde
ENCODING 209
SWIDTH 763 0
DWIDTH 15 0
BBX 16 16 1 0
BITMAP
01C8
0230
3C0F
0E06
0E04
0B04
1304
1184
1188
10C8
20C8
20E8
2070
2070
6030
F030
ENDCHAR
STARTCHAR Ograve
ENCODING 210
SWIDTH 753 0
DWIDTH 15 0
BBX 13 17 2 0
BITMAP
0700
0780
00C0
07C0
1820
3030
7018
6018
6018
C018
C018
C030
C030
C030
6060
30C0
1F00
ENDCHAR
STARTCHAR Oacute
ENCODING 211
SWIDTH 753 0
DWIDTH 15 0
BBX 13 17 2 0
BITMAP
0020
00E0
0100
07C0
1820
3030
7018
6018
6018
C018
C018
C030
C030
C030
6060
30C0
1F00
ENDCHAR
STARTCHAR Ocircumflex
ENCODING 212
SWIDTH 753 0
DWIDTH 15 0
BBX 13 17 2 0
BITMAP
0080
01C0
0260
07E0
1820
3030
7018
6018
6018
C018
C018
C030
C030
C030
6060
30C0
1F00
ENDCHAR
STARTCHAR Otilde
ENCODING 213
SWIDTH 753 0
DWIDTH 15 0
BBX 13 16 2 0
BITMAP
0310
04E0
07C0
1820
3030
7018
6018
6018
C018
C018
C030
C030
C030
6060
30C0
1F00
ENDCHAR
STARTCHAR Odieresis
ENCODING 214
SWIDTH 753 0
DWIDTH 15 0
BBX 13 16 2 0
BITMAP
0330
0330
03C0
0C30
3810
7018
6018
6018
C018
C018
C030
C030
C030
6060
30C0
1F80
ENDCHAR
STARTCHAR multiply
ENCODING 215
SWIDTH 570 0
DWIDTH 11 0
BBX 9 9 2 0
BITMAP
8080
4100
2200
1400
0800
1400
2200
4100
8080
ENDCHAR
STARTCHAR Oslash
ENCODING 216
SWIDTH 753 0
DWIDTH 15 0
BBX 13 16 2 -1
BITMAP
0010
07D0
1820
3030
7058
6098
6118
C218
C618
C430
C830
D030
6060
70C0
5F00
8000
ENDCHAR
STARTCHAR Ugrave
ENCODING 217
SWIDTH 794 0
DWIDTH 15 0
BBX 15 18 3 0
BITMAP
0800
0E00
0F80
0100
FC7E
3018
3010
6030
6030
6030
6020
4060
C060
C060
C0C0
C0C0
6180
3E00
ENDCHAR
STARTCHAR Uacute
ENCODING 218
SWIDTH 794 0
DWIDTH 15 0
BBX 15 17 3 0
BITMAP
0020
00E0
0180
FC7E
3018
3010
6030
6030
6030
6020
4060
C060
C060
C0C0
C0C0
6180
3E00
ENDCHAR
STARTCHAR Ucircumflex
ENCODING 219
SWIDTH 794 0
DWIDTH 15 0
BBX 15 17 3 0
BITMAP
0080
03C0
0660
FC7E
3018
3010
6030
6030
6030
6020
4060
C060
C060
C0C0
C0C0
6180
3E00
ENDCHAR
STARTCHAR Udieresis
ENCODING 220
SWIDTH 794 0
DWIDTH 15 0
BBX 15 16 3 0
BITMAP
0660
0660
FC7E
3018
3010
7030
6030
6030
6030
4020
C060
C060
C040
C0C0
6180
3E00
ENDCHAR
STARTCHAR Yacute
ENCODING 221
SWIDTH 591 0
DWIDTH 11 0
BBX 13 17 2 0
BITMAP
0020
00E0
0180
F878
3020
3060
3040
1880
1900
1A00
0E00
0C00
0C00
1800
1800
1800
7E00
ENDCHAR
STARTCHAR Thorn
ENCODING 222
SWIDTH 604 0
DWIDTH 12 0
BBX 12 14 1 0
BITMAP
1F00
0C00
0C00
0FC0
0C60
0C30
1830
1830
1860
18E0
3F80
3000
3000
FC00
ENDCHAR
STARTCHAR germandbls
ENCODING 223
SWIDTH 577 0
DWIDTH 11 0
BBX 15 19 -2 -5
BITMAP
0078
00C6
0186
0306
0F1C
0220
0660
0660
0630
0438
041C
0C0C
0C88
0CF0
0800
0800
1800
D000
6000
ENDCHAR
STARTCHAR agrave
ENCODING 224
SWIDTH 561 0
DWIDTH 11 0
BBX 10 14 1 0
BITMAP
0C00
0600
0100
0000
07C0
18C0
3080
6180
6180
C380
C300
C740
CB40
7380
ENDCHAR
STARTCHAR aacute
ENCODING 225
SWIDTH 561 0
DWIDTH 11 0
BBX 10 14 1 0
BITMAP
00C0
0180
0200
0000
07C0
18C0
3080
6180
6180
C380
C300
C740
CB40
7380
ENDCHAR
STARTCHAR acircumflex
ENCODING 226
SWIDTH 561 0
DWIDTH 11 0
BBX 10 14 1 0
BITMAP
0100
0380
0CC0
0000
07C0
18C0
3080
6180
6180
C380
C300
C740
CB40
7380
ENDCHAR
STARTCHAR atilde
ENCODING 227
SWIDTH 561 0
DWIDTH 11 0
BBX 10 13 1 0
BITMAP
0E40
1180
0000
07C0
18C0
3080
6180
6180
C380
C300
C740
CB40
7380
ENDCHAR
STARTCHAR adieresis
ENCODING 228
SWIDTH 561 0
DWIDTH 11 0
BBX 10 13 1 0
BITMAP
0CC0
0CC0
0000
07C0
18C0
3080
6180
6180
C380
C300
C740
CB40
7380
ENDCHAR
STARTCHAR aring
ENCODING 229
SWIDTH 561 0
DWIDTH 11 0
BBX 10 15 1 0
BITMAP
0300
0480
0480
0300
0000
07C0
18C0
3080
6180
6180
C380
C300
C740
CB40
7380
ENDCHAR
STARTCHAR ae
ENCODING 230
SWIDTH 779 0
DWIDTH 15 0
BBX 15 10 1 0
BITMAP
075C
1CE6
30C6
6084
6198
C1E0
C380
C584
C988
70F0
ENDCHAR
STARTCHAR ccedilla
ENCODING 231
SWIDTH 441 0
DWIDTH 9 0
BBX 8 15 2 -5
BITMAP
0E
33
63
60
C0
C0
C0
C2
C4
78
20
30
10
10
60
ENDCHAR
STARTCHAR egrave
ENCODING 232
SWIDTH 453 0
DWIDTH 9 0
BBX 8 14 2 0
BITMAP
30
18
04
00
0E
13
23
62
CC
F0
C0
C2
C4
78
ENDCHAR
STARTCHAR eacute
ENCODING 233
SWIDTH 453 0
DWIDTH 9 0
BBX 8 14 2 0
BITMAP
03
06
0C
00
0E
13
23
62
CC
F0
C0
C2
C4
78
ENDCHAR
STARTCHAR ecircumflex
ENCODING 234
SWIDTH 453 0
DWIDTH 9 0
BBX 8 14 2 0
BITMAP
04
0E
13
00
0E
13
23
62
CC
F0
C0
C2
C4
78
ENDCHAR
STARTCHAR edieresis
ENCODING 235
SWIDTH 453 0
DWIDTH 9 0
BBX 8 13 2 0
BITMAP
33
33
00
0E
33
23
46
CC
F0
C0
C2
CC
70
ENDCHAR
STARTCHAR igrave
ENCODING 236
SWIDTH 317 0
DWIDTH 6 0
BBX 5 14 2 0
BITMAP
C0
60
18
00
30
F0
30
20
60
60
40
C8
D0
E0
ENDCHAR
STARTCHAR iacute
ENCODING 237
SWIDTH 317 0
DWIDTH 6 0
BBX 6 14 2 0
BITMAP
0C
18
20
00
30
F0
30
20
60
60
40
C8
D0
E0
ENDCHAR
STARTCHAR icircumflex
ENCODING 238
SWIDTH 317 0
DWIDTH 6 0
BBX 6 14 2 0
BITMAP
10
38
4C
80
30
F0
30
20
60
60
40
C8
D0
E0
ENDCHAR
STARTCHAR idieresis
ENCODING 239
SWIDTH 317 0
DWIDTH 6 0
BBX 6 13 2 0
BITMAP
CC
CC
00
30
F0
20
20
60
60
40
C8
D0
E0
ENDCHAR
STARTCHAR eth
ENCODING 240
SWIDTH 537 0
DWIDTH 10 0
BBX 9 14 2 0
BITMAP
1180
0B00
0C00
3200
0F00
3180
6180
6180
E180
C380
C300
C300
4600
3800
ENDCHAR
STARTCHAR ntilde
ENCODING 241
SWIDTH 618 0
DWIDTH 12 0
BBX 10 13 2 0
BITMAP
0C40
1380
0000
1380
74C0
38C0
2880
3180
6180
6100
6340
4340
C380
ENDCHAR
STARTCHAR ograve
ENCODING 242
SWIDTH 537 0
DWIDTH 10 0
BBX 9 14 2 0
BITMAP
1800
0C00
0600
0000
0E00
3100
6180
6180
E180
C380
C300
C300
4600
3800
ENDCHAR
STARTCHAR oacute
ENCODING 243
SWIDTH 537 0
DWIDTH 10 0
BBX 9 14 2 0
BITMAP
0180
0300
0C00
0000
0E00
3100
6180
6180
E180
C380
C300
C300
4600
3800
ENDCHAR
STARTCHAR ocircumflex
ENCODING 244
SWIDTH 537 0
DWIDTH 10 0
BBX 9 14 2 0
BITMAP
0200
0600
1980
0000
0E00
3100
6180
6180
E180
C380
C300
C300
4600
3800
ENDCHAR
STARTCHAR otilde
ENCODING 245
SWIDTH 537 0
DWIDTH 10 0
BBX 9 13 2 0
BITMAP
1C80
2300
0000
0E00
3100
6180
6180
E180
C380
C300
C300
4600
3800
ENDCHAR
STARTCHAR odieresis
ENCODING 246
SWIDTH 537 0
DWIDTH 10 0
BBX 9 13 2 0
BITMAP
1980
1980
0000
1E00
3100
6180
6180
C180
C380
C300
C300
4600
3800
ENDCHAR
STARTCHAR divide
ENCODING 247
SWIDTH 570 0
DWIDTH 11 0
BBX 9 9 2 1
BITMAP
1800
1800
0000
0000
FF80
0000
0000
1800
1800
ENDCHAR
STARTCHAR oslash
ENCODING 248
SWIDTH 537 0
DWIDTH 10 0
BBX 9 10 2 0
BITMAP
0E80
3100
6380
6580
C980
C980
D300
E300
4600
B800
ENDCHAR
STARTCHAR ugrave
ENCODING 249
SWIDTH 618 0
DWIDTH 12 0
BBX 11 14 2 0
BITMAP
1800
0C00
0600
0000
3040
F0C0
2080
6180
6180
6380
4300
C720
CB40
F380
ENDCHAR
STARTCHAR uacute
ENCODING 250
SWIDTH 618 0
DWIDTH 12 0
BBX 11 14 2 0
BITMAP
0180
0300
0600
0000
3040
F0C0
2080
6180
6180
6380
4300
C720
CB40
F380
ENDCHAR
STARTCHAR ucircumflex
ENCODING 251
SWIDTH 618 0
DWIDTH 12 0
BBX 11 14 2 0
BITMAP
0200
0700
0980
1000
3040
F0C0
2080
6180
6180
6380
4300
C720
CB40
F380
ENDCHAR
STARTCHAR udieresis
ENCODING 252
SWIDTH 618 0
DWIDTH 12 0
BBX 11 13 2 0
BITMAP
18C0
18C0
0000
3040
F0C0
20C0
6180
6180
6380
4300
C720
CB40
F380
ENDCHAR
STARTCHAR yacute
ENCODING 253
SWIDTH 468 0
DWIDTH 9 0
BBX 11 19 0 -5
BITMAP
0060
00C0
0300
0000
1820
7860
1860
0840
08C0
0C80
0D00
0D00
0E00
0E00
0C00
0800
0800
D000
E000
ENDCHAR
STARTCHAR thorn
ENCODING 254
SWIDTH 584 0
DWIDTH 11 0
BBX 11 19 1 -5
BITMAP
0C00
3800
0800
1800
19C0
1260
1460
1860
3060
30C0
30C0
2180
6300
7E00
6000
4000
4000
C000
C000
ENDCHAR
STARTCHAR ydieresis
ENCODING 255
SWIDTH 468 0
DWIDTH 9 0
BBX 11 18 0 -5
BITMAP
0660
0660
0000
1820
7860
1860
0840
08C0
0C80
0D00
0D00
0E00
0E00
0C00
0800
0800
D000
E000
ENDCHAR
STARTCHAR Amacron
ENCODING 256
SWIDTH 624 0
DWIDTH 12 0
BBX 13 16 0 0
BITMAP
07E0
0000
00C0
00C0
0140
0140
0260
0260
0460
0460
0FE0
0860
1020
1020
2030
F0F8
ENDCHAR
STARTCHAR amacron
ENCODING 257
SWIDTH 561 0
DWIDTH 11 0
BBX 10 12 1 0
BITMAP
1F80
0000
07C0
18C0
3080
6180
6180
C380
C300
C740
CB40
7380
ENDCHAR
STARTCHAR Abreve
ENCODING 258
SWIDTH 624 0
DWIDTH 12 0
BBX 13 18 0 0
BITMAP
0420
0440
0380
0000
00C0
00C0
0140
0140
0260
0260
0460
0460
0FE0
0860
1020
1020
2030
F0F8
ENDCHAR
STARTCHAR abreve
ENCODING 259
SWIDTH 561 0
DWIDTH 11 0
BBX 10 14 1 0
BITMAP
1080
1100
0E00
0000
07C0
18C0
3080
6180
6180
C380
C300
C740
CB40
7380
ENDCHAR
STARTCHAR Aogonek
ENCODING 260
SWIDTH 624 0
DWIDTH 12 0
BBX 13 18 0 -4
BITMAP
00C0
00C0
0140
0140
0260
0260
0460
0460
0FE0
0860
1020
1020
2030
F0F8
0100
0200
0200
0380
ENDCHAR
STARTCHAR aogonek
ENCODING 261
SWIDTH 561 0
DWIDTH 11 0
BBX 10 14 1 -4
BITMAP
07C0
18C0
3080
6180
6180
C380
C300
C740
CB40
7380
0400
0800
0800
0E00
ENDCHAR
STARTCHAR Cacute
ENCODING 262
SWIDTH 661 0
DWIDTH 13 0
BBX 13 19 2 0
BITMAP
0040
00C0
0100
0200
0000
07E0
1C38
3010
6010
6000
6000
C000
C000
C000
C000
C020
6040
30C0
0F00
ENDCHAR
STARTCHAR cacute
ENCODING 263
SWIDTH 441 0
DWIDTH 9 0
BBX 8 15 2 0
BITMAP
02
06
08
10
00
0E
33
63
60
C0
C0
C0
C2
C4
78
ENDCHAR
STARTCHAR Ccircumflex
ENCODING 264
SWIDTH 661 0
DWIDTH 13 0
BBX 13 18 2 0
BITMAP
0100
0780
0840
0000
07E0
1C38
3010
6010
6000
6000
C000
C000
C000
C000
C020
6040
30C0
0F00
ENDCHAR
STARTCHAR ccircumflex
ENCODING 265
SWIDTH 441 0
DWIDTH 9 0
BBX 8 14 2 0
BITMAP
04
1E
21
00
0E
33
63
60
C0
C0
C0
C2
C4
78
ENDCHAR
STARTCHAR Cdotaccent
ENCODING 266
SWIDTH 661 0
DWIDTH 13 0
BBX 13 17 2 0
BITMAP
0300
0300
0000
07E0
1C38
3010
6010
6000
6000
C000
C000
C000
C000
C020
6040
30C0
0F00
ENDCHAR
STARTCHAR cdotaccent
ENCODING 267
SWIDTH 441 0
DWIDTH 9 0
BBX 8 13 2 0
BITMAP
0C
0C
00
0E
33
63
60
C0
C0
C0
C2
C4
78
ENDCHAR
STARTCHAR Ccaron
ENCODING 268
SWIDTH 661 0
DWIDTH 13 0
BBX 13 18 2 0
BITMAP
0840
0780
0200
0000
07E0
1C38
3010
6010
6000
6000
C000
C000
C000
C000
C020
6040
30C0
0F00
ENDCHAR
STARTCHAR ccaron
ENCODING 269
SWIDTH 441 0
DWIDTH 9 0
BBX 8 14 2 0
BITMAP
21
1E
08
00
0E
33
63
60
C0
C0
C0
C2
C4
78
ENDCHAR
STARTCHAR Dcaron
ENCODING 270
SWIDTH 763 0
DWIDTH 15 0
BBX 15 18 1 0
BITMAP
0210
01E0
0080
0000
1FE0
0618
040C
0C06
0C06
0C06
0806
1806
180C
180C
181C
3018
3060
FF80
ENDCHAR
STARTCHAR dcaron
ENCODING 271
SWIDTH 774 0
DWIDTH 14 0
BBX 15 14 1 0
BITMAP
0036
00F6
0026
0064
07E8
1C60
3040
60C0
60C0
C1C0
C280
C3A0
CDA0
71C0
ENDCHAR
STARTCHAR Dcroat
ENCODING 272
SWIDTH 770 0
DWIDTH 15 0
BBX 15 14 1 0
BITMAP
1FE0
0618
040C
0C04
0C06
0C06
0C06
7F06
1806
180C
180C
1018
3070
FF80
ENDCHAR
STARTCHAR dcroat
ENCODING 273
SWIDTH 587 0
DWIDTH 11 0
BBX 13 14 1 0
BITMAP
0030
00F0
07F8
0060
07E0
1C60
3040
60C0
60C0
C1C0
C280
C3A0
CDA0
71C0
ENDCHAR
STARTCHAR Emacron
ENCODING 274
SWIDTH 596 0
DWIDTH 12 0
BBX 13 16 1 0
BITMAP
0FC0
0000
3FF8
0C10
0C10
0C10
1800
1820
1860
1FC0
1840
3800
3000
3020
3060
FFC0
ENDCHAR
STARTCHAR emacron
ENCODING 275
SWIDTH 453 0
DWIDTH 9 0
BBX 8 12 2 0
BITMAP
3F
00
0E
13
23
62
CC
F0
C0
C2
C4
78
ENDCHAR
STARTCHAR Ebreve
ENCODING 276
SWIDTH 596 0
DWIDTH 12 0
BBX 13 18 1 0
BITMAP
0840
0880
0700
0000
3FF8
0C10
0C10
0C10
1800
1820
1860
1FC0
1840
3800
3000
3020
3060
FFC0
ENDCHAR
STARTCHAR ebreve
ENCODING 277
SWIDTH 453 0
DWIDTH 9 0
BBX 8 14 2 0
BITMAP
21
22
1C
00
0E
13
23
62
CC
F0
C0
C2
C4
78
ENDCHAR
STARTCHAR Edotaccent
ENCODING 278
SWIDTH 596 0
DWIDTH 12 0
BBX 13 17 1 0
BITMAP
0300
0300
0000
3FF8
0C10
0C10
0C10
1800
1820
1860
1FC0
1840
3800
3000
3020
3060
FFC0
ENDCHAR
STARTCHAR edotaccent
ENCODING 279
SWIDTH 453 0
DWIDTH 9 0
BBX 8 13 2 0
BITMAP
0C
0C
00
0E
13
23
62
CC
F0
C0
C2
C4
78
ENDCHAR
STARTCHAR Eogonek
ENCODING 280
SWIDTH 596 0
DWIDTH 12 0
BBX 13 18 1 -4
BITMAP
3FF8
0C10
0C10
0C10
1800
1820
1860
1FC0
1840
3800
3000
3020
3060
FFC0
0400
0800
0800
0E00
ENDCHAR
STARTCHAR eogonek
ENCODING 281
SWIDTH 453 0
DWIDTH 9 0
BBX 8 14 2 -4
BITMAP
0E
13
23
62
CC
F0
C0
C2
C4
78
10
20
20
38
ENDCHAR
STARTCHAR Ecaron
ENCODING 282
SWIDTH 596 0
DWIDTH 12 0
BBX 13 18 1 0
BITMAP
0840
0780
0200
0000
3FF8
0C10
0C10
0C10
1800
1820
1860
1FC0
1840
3800
3000
3020
3060
FFC0
ENDCHAR
STARTCHAR ecaron
ENCODING 283
SWIDTH 453 0
DWIDTH 9 0
BBX 8 14 2 0
BITMAP
21
1E
08
00
0E
13
23
62
CC
F0
C0
C2
C4
78
ENDCHAR
STARTCHAR Gcircumflex
ENCODING 284
SWIDTH 709 0
DWIDTH 14 0
BBX 13 18 2 0
BITMAP
0100
0780
0840
0000
03E0
0C38
3010
7010
6000
6000
C000
C000
C0F8
C030
C020
6060
3060
0F80
ENDCHAR
STARTCHAR gcircumflex
ENCODING 285
SWIDTH 499 0
DWIDTH 10 0
BBX 12 19 0 -5
BITMAP
0100
0780
0840
0000
0F30
18E0
30C0
30C0
30C0
1180
0F00
1000
3C00
1F80
61C0
C0C0
C0C0
6180
3E00
ENDCHAR
STARTCHAR Gbreve
ENCODING 286
SWIDTH 709 0
DWIDTH 14 0
BBX 13 18 2 0
BITMAP
0840
0880
0700
0000
03E0
0C38
3010
7010
6000
6000
C000
C000
C0F8
C030
C020
6060
3060
0F80
ENDCHAR
STARTCHAR gbreve
ENCODING 287
SWIDTH 499 0
DWIDTH 10 0
BBX 12 19 0 -5
BITMAP
0840
0880
0700
0000
0F30
18E0
30C0
30C0
30C0
1180
0F00
1000
3C00
1F80
61C0
C0C0
C0C0
6180
3E00
ENDCHAR
STARTCHAR Gdotaccent
ENCODING 288
SWIDTH 709 0
DWIDTH 14 0
BBX 13 17 2 0
BITMAP
0300
0300
0000
03E0
0C38
3010
7010
6000
6000
C000
C000
C0F8
C030
C020
6060
3060
0F80
ENDCHAR
STARTCHAR gdotaccent
ENCODING 289
SWIDTH 499 0
DWIDTH 10 0
BBX 12 18 0 -5
BITMAP
0300
0300
0000
0F30
18E0
30C0
30C0
30C0
1180
0F00
1000
3C00
1F80
61C0
C0C0
C0C0
6180
3E00
ENDCHAR
STARTCHAR Gcommaaccent
ENCODING 290
SWIDTH 709 0
DWIDTH 14 0
BBX 13 20 2 -6
BITMAP
03E0
0C38
3010
7010
6000
6000
C000
C000
C0F8
C030
C020
6060
3060
0F80
0000
0600
0600
0600
0400
0800
ENDCHAR
STARTCHAR gcommaaccent
ENCODING 291
SWIDTH 499 0
DWIDTH 10 0
BBX 12 21 0 -5
BITMAP
0100
0200
0600
0600
0600
0000
0F30
18E0
30C0
30C0
30C0
1180
0F00
1000
3C00
1F80
61C0
C0C0
C0C0
6180
3E00
ENDCHAR
STARTCHAR Hcircumflex
ENCODING 292
SWIDTH 775 0
DWIDTH 15 0
BBX 17 18 1 0
BITMAP
004000
01E000
021000
000000
1F1F80
060600
0C0600
0C0400
0C0C00
0C0C00
180C00
1FFC00
180800
181800
181800
301800
303000
FC7C00
ENDCHAR
STARTCHAR hcircumflex
ENCODING 293
SWIDTH 607 0
DWIDTH 12 0
BBX 10 18 2 0
BITMAP
0800
3C00
4200
0000
0800
3800
1800
1000
3380
34C0
38C0
2880
3180
6180
6100
6340
4340
C380
ENDCHAR
STARTCHAR Hbar
ENCODING 294
SWIDTH 775 0
DWIDTH 15 0
BBX 17 14 1 0
BITMAP
1F1F80
060600
0C0600
FFFF80
0C0C00
0C0C00
180C00
1FFC00
180800
181800
181800
301800
303000
FC7C00
ENDCHAR
STARTCHAR hbar
ENCODING 295
SWIDTH 607 0
DWIDTH 12 0
BBX 11 14 1 0
BITMAP
0400
1C00
FF00
0800
19C0
1A60
1C60
1440
18C0
30C0
3080
31A0
21A0
61C0
ENDCHAR
STARTCHAR Itilde
ENCODING 296
SWIDTH 345 0
DWIDTH 7 0
BBX 8 17 1 0
BITMAP
39
46
00
1F
0C
0C
0C
08
18
18
18
18
10
30
30
30
F8
ENDCHAR
STARTCHAR itilde
ENCODING 297
SWIDTH 317 0
DWIDTH 6 0
BBX 7 13 1 0
BITMAP
72
8C
00
18
78
18
10
30
30
20
64
68
70
ENDCHAR
STARTCHAR Imacron
ENCODING 298
SWIDTH 345 0
DWIDTH 7 0
BBX 8 16 1 0
BITMAP
3F
00
1F
0C
0C
0C
08
18
18
18
18
10
30
30
30
F8
ENDCHAR
STARTCHAR imacron
ENCODING 299
SWIDTH 317 0
DWIDTH 6 0
BBX 6 12 2 0
BITMAP
FC
00
30
F0
30
20
60
60
40
C8
D0
E0
ENDCHAR
STARTCHAR Ibreve
ENCODING 300
SWIDTH 345 0
DWIDTH 7 0
BBX 8 18 1 0
BITMAP
21
22
1C
00
1F
0C
0C
0C
08
18
18
18
18
10
30
30
30
F8
ENDCHAR
STARTCHAR ibreve
ENCODING 301
SWIDTH 317 0
DWIDTH 6 0
BBX 6 14 2 0
BITMAP
84
88
70
00
30
F0
30
20
60
60
40
C8
D0
E0
ENDCHAR
STARTCHAR Iogonek
ENCODING 302
SWIDTH 345 0
DWIDTH 7 0
BBX 8 18 1 -4
BITMAP
1F
0C
0C
0C
08
18
18
18
18
10
30
30
30
F8
10
20
20
38
ENDCHAR
STARTCHAR iogonek
ENCODING 303
SWIDTH 317 0
DWIDTH 6 0
BBX 5 18 2 -4
BITMAP
18
18
00
00
30
F0
30
20
60
60
40
C8
D0
E0
20
40
40
70
ENDCHAR
STARTCHAR Idotaccent
ENCODING 304
SWIDTH 345 0
DWIDTH 7 0
BBX 8 17 1 0
BITMAP
0C
0C
00
1F
0C
0C
0C
08
18
18
18
18
10
30
30
30
F8
ENDCHAR
STARTCHAR dotlessi
ENCODING 305
SWIDTH 317 0
DWIDTH 6 0
BBX 5 10 2 0
BITMAP
30
F0
30
20
60
60
40
C8
D0
E0
ENDCHAR
STARTCHAR IJ
ENCODING 306
SWIDTH 680 0
DWIDTH 14 0
BBX 15 17 1 -3
BITMAP
1F3E
0C18
0C18
0C18
0810
1830
1830
1830
1820
1060
3060
3060
3060
F8C0
00C0
0180
0700
ENDCHAR
STARTCHAR ij
ENCODING 307
SWIDTH 610 0
DWIDTH 12 0
BBX 11 19 2 -5
BITMAP
1860
1860
0040
0000
3040
F1C0
30C0
20C0
60C0
6080
4080
C980
D180
E180
0100
0300
0300
1A00
0C00
ENDCHAR
STARTCHAR Jcircumflex
ENCODING 308
SWIDTH 352 0
DWIDTH 7 0
BBX 10 21 -1 -3
BITMAP
0200
0F00
1080
0000
07C0
0300
0300
0300
0200
0600
0600
0600
0400
0C00
0C00
0C00
0C00
1800
1800
3000
E000
ENDCHAR
STARTCHAR jcircumflex
ENCODING 309
SWIDTH 309 0
DWIDTH 6 0
BBX 8 19 -1 -5
BITMAP
04
1E
21
00
02
0E
06
06
06
04
04
0C
0C
0C
08
18
18
D0
60
ENDCHAR
STARTCHAR Kcommaaccent
ENCODING 310
SWIDTH 650 0
DWIDTH 13 0
BBX 15 20 1 -6
BITMAP
1F3E
0C18
0C20
0C40
0980
0A00
1E00
1E00
1B00
1380
3180
30C0
3060
F830
0000
0600
0600
0600
0400
0800
ENDCHAR
STARTCHAR kcommaaccent
ENCODING 311
SWIDTH 545 0
DWIDTH 11 0
BBX 10 20 2 -6
BITMAP
0800
3800
1800
1000
30C0
3380
3400
2800
6800
7800
6C00
4C80
C680
C700
0000
0C00
0C00
0C00
0800
1000
ENDCHAR
STARTCHAR kgreenlandic
ENCODING 312
SWIDTH 545 0
DWIDTH 11 0
BBX 10 10 2 0
BITMAP
30C0
3380
3400
2800
6800
7800
6C00
4C80
C680
C700
ENDCHAR
STARTCHAR Lacute
ENCODING 313
SWIDTH 565 0
DWIDTH 11 0
BBX 11 19 1 0
BITMAP
0100
0300
0400
0800
0000
1F00
0C00
0C00
0C00
0C00
0800
1800
1800
1800
1000
3020
3020
3040
FFC0
ENDCHAR
STARTCHAR lacute
ENCODING 314
SWIDTH 306 0
DWIDTH 6 0
BBX 6 19 2 0
BITMAP
04
0C
10
20
00
18
78
18
10
30
30
20
20
60
60
40
C8
D0
E0
ENDCHAR
STARTCHAR Lcommaaccent
ENCODING 315
SWIDTH 565 0
DWIDTH 11 0
BBX 11 20 1 -6
BITMAP
1F00
0C00
0C00
0C00
0C00
0800
1800
1800
1800
1000
3020
3020
3040
FFC0
0000
0C00
0C00
0C00
0800
1000
ENDCHAR
STARTCHAR lcommaaccent
ENCODING 316
SWIDTH 306 0
DWIDTH 6 0
BBX 5 20 2 -6
BITMAP
18
78
18
10
30
30
20
20
60
60
40
C8
D0
E0
00
60
60
60
40
80
ENDCHAR
STARTCHAR Lcaron
ENCODING 317
SWIDTH 753 0
DWIDTH 14 0
BBX 15 14 1 0
BITMAP
1F06
0C06
0C06
0C04
0C08
0800
1800
1800
1800
1000
3020
3020
3040
FFC0
ENDCHAR
STARTCHAR lcaron
ENCODING 318
SWIDTH 507 0
DWIDTH 10 0
BBX 10 14 2 0
BITMAP
18C0
78C0
18C0
1080
3100
3000
2000
2000
6000
6000
4000
C800
D000
E000
ENDCHAR
STARTCHAR Ldot
ENCODING 319
SWIDTH 802 0
DWIDTH 15 0
BBX 14 14 1 0
BITMAP
1F00
0C00
0C00
0C00
0C00
0800
1800
1800
180C
100C
3020
3020
3040
FFC0
ENDCHAR
STARTCHAR ldot
ENCODING 320
SWIDTH 556 0
DWIDTH 11 0
BBX 9 14 2 0
BITMAP
1800
7800
1800
1000
3000
3000
2000
2000
6180
6180
4000
C800
D000
E000
ENDCHAR
STARTCHAR Lslash
ENCODING 321
SWIDTH 571 0
DWIDTH 11 0
BBX 11 14 1 0
BITMAP
1F00
0C00
0C00
0C00
0D00
0B00
1C00
1800
7800
9800
3020
3020
3040
FFC0
ENDCHAR
STARTCHAR lslash
ENCODING 322
SWIDTH 318 0
DWIDTH 6 0
BBX 7 14 1 0
BITMAP
0C
3C
0C
08
18
1E
18
70
B0
30
20
64
68
70
ENDCHAR
STARTCHAR Nacute
ENCODING 323
SWIDTH 763 0
DWIDTH 15 0
BBX 16 19 1 0
BITMAP
0020
0060
0080
0100
0000
3C0F
0E06
0E04
0B04
1304
1184
1188
10C8
20C8
20E8
2070
2070
6030
F030
ENDCHAR
STARTCHAR nacute
ENCODING 324
SWIDTH 618 0
DWIDTH 12 0
BBX 10 15 2 0
BITMAP
0100
0300
0400
0800
0000
1380
74C0
38C0
2880
3180
6180
6100
6340
4340
C380
ENDCHAR
STARTCHAR Ncommaaccent
ENCODING 325
SWIDTH 763 0
DWIDTH 15 0
BBX 16 20 1 -6
BITMAP
3C0F
0E06
0E04
0B04
1304
1184
1188
10C8
20C8
20E8
2070
2070
6030
F030
0000
0300
0300
0300
0200
0400
ENDCHAR
STARTCHAR ncommaaccent
ENCODING 326
SWIDTH 618 0
DWIDTH 12 0
BBX 10 16 2 -6
BITMAP
1380
74C0
38C0
2880
3180
6180
6100
6340
4340
C380
0000
0600
0600
0600
0400
0800
ENDCHAR
STARTCHAR Ncaron
ENCODING 327
SWIDTH 763 0
DWIDTH 15 0
BBX 16 18 1 0
BITMAP
0210
01E0
0080
0000
3C0F
0E06
0E04
0B04
1304
1184
1188
10C8
20C8
20E8
2070
2070
6030
F030
ENDCHAR
STARTCHAR ncaron
ENCODING 328
SWIDTH 618 0
DWIDTH 12 0
BBX 10 14 2 0
BITMAP
1080
0F00
0400
0000
1380
74C0
38C0
2880
3180
6180
6100
6340
4340
C380
ENDCHAR
STARTCHAR napostrophe
ENCODING 329
SWIDTH 823 0
DWIDTH 16 0
BBX 13 14 3 0
BITMAP
6000
6000
6000
4000
8270
0E98
0718
0510
0630
0C30
0C20
0C68
0868
1870
ENDCHAR
STARTCHAR Eng
ENCODING 330
SWIDTH 763 0
DWIDTH 15 0
BBX 16 19 1 -5
BITMAP
3C0F
0E06
0E04
0B04
1304
1184
1188
10C8
20C8
20E8
2070
2070
6030
F030
0020
0060
0060
0340
0180
ENDCHAR
STARTCHAR eng
ENCODING 331
SWIDTH 618 0
DWIDTH 12 0
BBX 10 15 2 -5
BITMAP
1380
74C0
38C0
2880
3180
6180
6100
6300
4300
C300
0200
0600
0600
3400
1800
ENDCHAR
STARTCHAR Omacron
ENCODING 332
SWIDTH 753 0
DWIDTH 15 0
BBX 13 16 2 0
BITMAP
0FC0
0000
07C0
1820
3030
7018
6018
6018
C018
C018
C030
C030
C030
6060
30C0
1F00
ENDCHAR
STARTCHAR omacron
ENCODING 333
SWIDTH 537 0
DWIDTH 10 0
BBX 9 12 2 0
BITMAP
3F00
0000
0E00
3100
6180
6180
E180
C380
C300
C300
4600
3800
ENDCHAR
STARTCHAR Obreve
ENCODING 334
SWIDTH 753 0
DWIDTH 15 0
BBX 13 18 2 0
BITMAP
0840
0880
0700
0000
07C0
1820
3030
7018
6018
6018
C018
C018
C030
C030
C030
6060
30C0
1F00
ENDCHAR
STARTCHAR obreve
ENCODING 335
SWIDTH 537 0
DWIDTH 10 0
BBX 9 14 2 0
BITMAP
2100
2200
1C00
0000
0E00
3100
6180
6180
E180
C380
C300
C300
4600
3800
ENDCHAR
STARTCHAR Ohungarumlaut
ENCODING 336
SWIDTH 753 0
DWIDTH 15 0
BBX 13 19 2 0
BITMAP
0240
02C0
0680
0500
0000
07C0
1820
3030
7018
6018
6018
C018
C018
C030
C030
C030
6060
30C0
1F00
ENDCHAR
STARTCHAR ohungarumlaut
ENCODING 337
SWIDTH 537 0
DWIDTH 10 0
BBX 9 15 2 0
BITMAP
0900
0B00
1A00
1400
0000
0E00
3100
6180
6180
E180
C380
C300
C300
4600
3800
ENDCHAR
STARTCHAR OE
ENCODING 338
SWIDTH 1020 0
DWIDTH 20 0
BBX 20 14 2 0
BITMAP
03FFF0
0E1820
381820
301820
603000
603040
C03080
C03F80
C03080
C06000
C06000
606040
30E080
0FFF80
ENDCHAR
STARTCHAR oe
ENCODING 339
SWIDTH 806 0
DWIDTH 16 0
BBX 15 10 2 0
BITMAP
0E1C
3166
61C6
618C
E198
C3E0
C300
C304
4798
38E0
ENDCHAR
STARTCHAR Racute
ENCODING 340
SWIDTH 640 0
DWIDTH 12 0
BBX 12 19 1 0
BITMAP
0040
00C0
0100
0200
0000
1FC0
0C60
0C30
0C30
0830
0860
18C0
1F80
18C0
18C0
30C0
30C0
30C0
F870
ENDCHAR
STARTCHAR racute
ENCODING 341
SWIDTH 402 0
DWIDTH 8 0
BBX 7 15 2 0
BITMAP
04
0C
10
20
00
32
EE
30
30
60
60
40
40
C0
80
ENDCHAR
STARTCHAR Rcommaaccent
ENCODING 342
SWIDTH 640 0
DWIDTH 12 0
BBX 12 20 1 -6
BITMAP
1FC0
0C60
0C30
0C30
0830
0860
18C0
1F80
18C0
18C0
30C0
30C0
30C0
F870
0000
0600
0600
0600
0400
0800
ENDCHAR
STARTCHAR rcommaaccent
ENCODING 343
SWIDTH 402 0
DWIDTH 8 0
BBX 7 16 2 -6
BITMAP
32
EE
30
30
60
60
40
40
C0
80
00
60
60
60
40
80
ENDCHAR
STARTCHAR Rcaron
ENCODING 344
SWIDTH 640 0
DWIDTH 12 0
BBX 12 18 1 0
BITMAP
0840
0780
0200
0000
1FC0
0C60
0C30
0C30
0830
0860
18C0
1F80
18C0
18C0
30C0
30C0
30C0
F870
ENDCHAR
STARTCHAR rcaron
ENCODING 345
SWIDTH 402 0
DWIDTH 8 0
BBX 7 14 2 0
BITMAP
42
3C
10
00
32
EE
30
30
60
60
40
40
C0
80
ENDCHAR
STARTCHAR Sacute
ENCODING 346
SWIDTH 533 0
DWIDTH 10 0
BBX 9 19 2 0
BITMAP
0200
0600
0800
1000
0000
1E00
3180
6100
6100
6000
3000
1C00
0E00
0700
8300
8300
8200
C600
3800
ENDCHAR
STARTCHAR sacute
ENCODING 347
SWIDTH 389 0
DWIDTH 8 0
BBX 8 15 1 0
BITMAP
02
06
08
10
00
1E
23
21
30
18
1C
06
C6
44
38
ENDCHAR
STARTCHAR Scircumflex
ENCODING 348
SWIDTH 533 0
DWIDTH 10 0
BBX 9 18 2 0
BITMAP
0400
1E00
2100
0000
1E00
3180
6100
6100
6000
3000
1C00
0E00
0700
8300
8300
8200
C600
3800
ENDCHAR
STARTCHAR scircumflex
ENCODING 349
SWIDTH 389 0
DWIDTH 8 0
BBX 8 14 1 0
BITMAP
04
1E
21
00
1E
23
21
30
18
1C
06
C6
44
38
ENDCHAR
STARTCHAR Scedilla
ENCODING 350
SWIDTH 533 0
DWIDTH 10 0
BBX 9 19 2 -5
BITMAP
1E00
3180
6100
6100
6000
3000
1C00
0E00
0700
8300
8300
8200
C600
3800
1000
1800
0800
1800
3000
ENDCHAR
STARTCHAR scedilla
ENCODING 351
SWIDTH 389 0
DWIDTH 8 0
BBX 8 15 1 -5
BITMAP
1E
23
21
30
18
1C
06
C6
44
38
10
18
08
18
30
ENDCHAR
STARTCHAR Scaron
ENCODING 352
SWIDTH 533 0
DWIDTH 10 0
BBX 10 17 2 0
BITMAP
08C0
0700
0200
1E00
3180
6100
6100
6000
3000
1C00
0E00
0700
8300
8300
8200
C600
3800
ENDCHAR
STARTCHAR scaron
ENCODING 353
SWIDTH 389 0
DWIDTH 8 0
BBX 9 15 1 0
BITMAP
1080
1900
0E00
0400
0000
1E00
2300
2100
3000
1800
1C00
0600
C600
4400
3800
ENDCHAR
STARTCHAR Tcommaaccent
ENCODING 354
SWIDTH 606 0
DWIDTH 12 0
BBX 12 19 3 -5
BITMAP
FFF0
8420
8C20
0C00
0C00
0C00
1800
1800
1800
1800
1000
3000
3000
FC00
1000
1800
0800
1800
3000
ENDCHAR
STARTCHAR tcommaaccent
ENCODING 355
SWIDTH 341 0
DWIDTH 7 0
BBX 6 18 2 -5
BITMAP
08
10
30
FC
30
20
60
60
60
40
C8
D0
E0
40
60
20
60
C0
ENDCHAR
STARTCHAR Tcaron
ENCODING 356
SWIDTH 606 0
DWIDTH 12 0
BBX 12 18 3 0
BITMAP
1080
0F00
0400
0000
FFF0
8420
8C20
0C00
0C00
0C00
1800
1800
1800
1800
1000
3000
3000
FC00
ENDCHAR
STARTCHAR tcaron
ENCODING 357
SWIDTH 540 0
DWIDTH 11 0
BBX 11 14 2 0
BITMAP
0060
0860
1060
3040
FC80
3000
2000
6000
6000
6000
4000
C800
D000
E000
ENDCHAR
STARTCHAR Tbar
ENCODING 358
SWIDTH 606 0
DWIDTH 12 0
BBX 12 14 3 0
BITMAP
FFF0
8420
8C20
0C00
0C00
0C00
3FC0
1800
1800
1800
1000
3000
3000
FC00
ENDCHAR
STARTCHAR tbar
ENCODING 359
SWIDTH 341 0
DWIDTH 7 0
BBX 8 13 1 0
BITMAP
04
08
18
7E
18
10
30
FF
30
20
64
68
70
ENDCHAR
STARTCHAR Utilde
ENCODING 360
SWIDTH 794 0
DWIDTH 15 0
BBX 15 17 3 0
BITMAP
0720
08C0
0000
FC7E
3018
3010
6030
6030
6030
6020
4060
C060
C060
C0C0
C0C0
6180
3E00
ENDCHAR
STARTCHAR utilde
ENCODING 361
SWIDTH 618 0
DWIDTH 12 0
BBX 11 13 2 0
BITMAP
1C80
2300
0000
3040
F0C0
2080
6180
6180
6380
4300
C720
CB40
F380
ENDCHAR
STARTCHAR Umacron
ENCODING 362
SWIDTH 794 0
DWIDTH 15 0
BBX 15 16 3 0
BITMAP
0FC0
0000
FC7E
3018
3010
6030
6030
6030
6020
4060
C060
C060
C0C0
C0C0
6180
3E00
ENDCHAR
STARTCHAR umacron
ENCODING 363
SWIDTH 618 0
DWIDTH 12 0
BBX 11 12 2 0
BITMAP
3F00
0000
3040
F0C0
2080
6180
6180
6380
4300
C720
CB40
F380
ENDCHAR
STARTCHAR Ubreve
ENCODING 364
SWIDTH 794 0
DWIDTH 15 0
BBX 15 18 3 0
BITMAP
0420
0440
0380
0000
FC7E
3018
3010
6030
6030
6030
6020
4060
C060
C060
C0C0
C0C0
6180
3E00
ENDCHAR
STARTCHAR ubreve
ENCODING 365
SWIDTH 618 0
DWIDTH 12 0
BBX 11 14 2 0
BITMAP
2100
2200
1C00
0000
3040
F0C0
2080
6180
6180
6380
4300
C720
CB40
F380
ENDCHAR
STARTCHAR Uring
ENCODING 366
SWIDTH 794 0
DWIDTH 15 0
BBX 15 19 3 0
BITMAP
0300
0480
0480
0300
0000
FC7E
3018
3010
6030
6030
6030
6020
4060
C060
C060
C0C0
C0C0
6180
3E00
ENDCHAR
STARTCHAR uring
ENCODING 367
SWIDTH 618 0
DWIDTH 12 0
BBX 11 15 2 0
BITMAP
0C00
1200
1200
0C00
0000
3040
F0C0
2080
6180
6180
6380
4300
C720
CB40
F380
ENDCHAR
STARTCHAR Uhungarumlaut
ENCODING 368
SWIDTH 794 0
DWIDTH 15 0
BBX 15 19 3 0
BITMAP
0240
02C0
0680
0500
0000
FC7E
3018
3010
6030
6030
6030
6020
4060
C060
C060
C0C0
C0C0
6180
3E00
ENDCHAR
STARTCHAR uhungarumlaut
ENCODING 369
SWIDTH 618 0
DWIDTH 12 0
BBX 11 15 2 0
BITMAP
0900
0B00
1A00
1400
0000
3040
F0C0
2080
6180
6180
6380
4300
C720
CB40
F380
ENDCHAR
STARTCHAR Uogonek
ENCODING 370
SWIDTH 794 0
DWIDTH 15 0
BBX 15 18 3 -4
BITMAP
FC7E
3018
3010
6030
6030
6030
6020
4060
C060
C060
C0C0
C0C0
6180
3E00
0200
0400
0400
0700
ENDCHAR
STARTCHAR uogonek
ENCODING 371
SWIDTH 618 0
DWIDTH 12 0
BBX 11 14 2 -4
BITMAP
3040
F0C0
2080
6180
6180
6380
4300
C720
CB40
F380
0400
0800
0800
0E00
ENDCHAR
STARTCHAR Wcircumflex
ENCODING 372
SWIDTH 946 0
DWIDTH 18 0
BBX 19 18 2 0
BITMAP
004000
01E000
021000
000000
FC01E0
702080
306080
30E100
30E100
316200
316200
326400
326400
342400
342800
382800
303000
303000
ENDCHAR
STARTCHAR wcircumflex
ENCODING 373
SWIDTH 785 0
DWIDTH 15 0
BBX 15 14 2 0
BITMAP
0080
03C0
0420
0000
30C4
E186
2186
6184
6184
4308
4708
C710
DB20
61C0
ENDCHAR
STARTCHAR Ycircumflex
ENCODING 374
SWIDTH 591 0
DWIDTH 11 0
BBX 13 18 2 0
BITMAP
0200
0F00
1080
0000
F878
3020
3060
3040
1880
1900
1A00
0E00
0C00
0C00
1800
1800
1800
7E00
ENDCHAR
STARTCHAR ycircumflex
ENCODING 375
SWIDTH 468 0
DWIDTH 9 0
BBX 11 19 0 -5
BITMAP
0200
0F00
1080
0000
1820
7860
1860
0840
08C0
0C80
0D00
0D00
0E00
0E00
0C00
0800
0800
D000
E000
ENDCHAR
STARTCHAR Ydieresis
ENCODING 376
SWIDTH 591 0
DWIDTH 11 0
BBX 12 16 3 0
BITMAP
1980
1980
F0F0
6040
60C0
6080
3100
3200
3400
1C00
1800
1800
3000
3000
3000
FC00
ENDCHAR
STARTCHAR Zacute
ENCODING 377
SWIDTH 622 0
DWIDTH 12 0
BBX 14 19 0 0
BITMAP
0020
0060
0080
0100
0000
0FFC
081C
0838
1070
00E0
01C0
0380
0700
0600
0C00
1810
3010
6020
FFE0
ENDCHAR
STARTCHAR zacute
ENCODING 378
SWIDTH 468 0
DWIDTH 9 0
BBX 9 15 1 0
BITMAP
0100
0300
0400
0800
0000
3F80
4300
4600
0400
0C00
1800
3080
6100
FF00
9E00
ENDCHAR
STARTCHAR Zdotaccent
ENCODING 379
SWIDTH 622 0
DWIDTH 12 0
BBX 14 17 0 0
BITMAP
00C0
00C0
0000
0FFC
081C
0838
1070
00E0
01C0
0380
0700
0600
0C00
1810
3010
6020
FFE0
ENDCHAR
STARTCHAR zdotaccent
ENCODING 380
SWIDTH 468 0
DWIDTH 9 0
BBX 9 13 1 0
BITMAP
0C00
0C00
0000
3F80
4300
4600
0400
0C00
1800
3080
6100
FF00
9E00
ENDCHAR
STARTCHAR Zcaron
ENCODING 381
SWIDTH 622 0
DWIDTH 12 0
BBX 14 17 0 0
BITMAP
0310
00E0
0080
0FFC
081C
0838
1070
00E0
01C0
0380
0700
0600
0C00
1810
3010
6020
FFE0
ENDCHAR
STARTCHAR zcaron
ENCODING 382
SWIDTH 468 0
DWIDTH 9 0
BBX 9 15 1 0
BITMAP
1080
0900
0E00
0400
0000
3F80
4300
4600
0400
0C00
1800
3080
6100
FF00
9E00
ENDCHAR
STARTCHAR uni0186
ENCODING 390
SWIDTH 661 0
DWIDTH 13 0
BBX 13 14 2 0
BITMAP
0780
1860
1030
2018
0018
0018
0018
0018
0030
0030
4030
4060
E1C0
3F00
ENDCHAR
STARTCHAR uni0189
ENCODING 393
SWIDTH 770 0
DWIDTH 15 0
BBX 15 14 1 0
BITMAP
1FE0
0618
040C
0C04
0C06
0C06
0C06
7F06
1806
180C
180C
1018
3070
FF80
ENDCHAR
STARTCHAR uni018E
ENCODING 398
SWIDTH 596 0
DWIDTH 12 0
BBX 13 14 1 0
BITMAP
1FF8
3060
2060
0060
00E0
10C0
1FC0
30C0
20C0
00C0
4180
4180
4180
FFE0
ENDCHAR
STARTCHAR florin
ENCODING 402
SWIDTH 530 0
DWIDTH 10 0
BBX 11 17 1 -3
BITMAP
00C0
0160
0200
0200
0600
0600
1F80
0C00
0C00
0C00
0800
0800
1800
1800
1000
D000
6000
ENDCHAR
STARTCHAR uni0197
ENCODING 407
SWIDTH 345 0
DWIDTH 7 0
BBX 8 14 1 0
BITMAP
1F
0C
0C
0C
08
18
FF
18
18
10
30
30
30
F8
ENDCHAR
STARTCHAR uni019A
ENCODING 410
SWIDTH 306 0
DWIDTH 6 0
BBX 8 14 1 0
BITMAP
0C
3C
0C
08
18
18
FF
10
30
30
20
64
68
70
ENDCHAR
STARTCHAR uni019D
ENCODING 413
SWIDTH 763 0
DWIDTH 15 0
BBX 19 19 -2 -5
BITMAP
0781E0
01C0C0
01C080
016080
026080
023080
023100
021900
041900
041D00
040E00
0C0E00
0C0600
0C0600
080000
180000
180000
D00000
600000
ENDCHAR
STARTCHAR uni019F
ENCODING 415
SWIDTH 753 0
DWIDTH 15 0
BBX 13 14 2 0
BITMAP
07C0
1820
3030
7018
6018
6018
FFF8
C018
C030
C030
C030
6060
30C0
1F00
ENDCHAR
STARTCHAR Ohorn
ENCODING 416
SWIDTH 753 0
DWIDTH 15 0
BBX 15 14 2 0
BITMAP
07C6
1826
3036
701C
6018
6018
C018
C018
C030
C030
C030
6060
30C0
1F00
ENDCHAR
STARTCHAR ohorn
ENCODING 417
SWIDTH 537 0
DWIDTH 10 0
BBX 11 10 2 0
BITMAP
0E60
3160
61E0
61C0
E180
C380
C300
C300
4600
3800
ENDCHAR
STARTCHAR Uhorn
ENCODING 431
SWIDTH 794 0
DWIDTH 15 0
BBX 17 14 3 0
BITMAP
FC7F80
301980
301180
603100
603200
603000
602000
406000
C06000
C06000
C0C000
C0C000
618000
3E0000
ENDCHAR
STARTCHAR uhorn
ENCODING 432
SWIDTH 618 0
DWIDTH 12 0
BBX 13 10 2 0
BITMAP
3058
F0D8
2098
6190
61A0
6380
4300
C720
CB40
F380
ENDCHAR
STARTCHAR uni01B5
ENCODING 437
SWIDTH 622 0
DWIDTH 12 0
BBX 14 14 0 0
BITMAP
0FFC
081C
0838
1070
00E0
01C0
1FE0
0700
0600
0C00
1810
3010
6020
FFE0
ENDCHAR
STARTCHAR uni01B6
ENCODING 438
SWIDTH 468 0
DWIDTH 9 0
BBX 9 10 1 0
BITMAP
3F80
4300
4600
0400
7F80
1800
3080
6100
FF00
9E00
ENDCHAR
STARTCHAR uni01BB
ENCODING 443
SWIDTH 530 0
DWIDTH 10 0
BBX 10 13 1 0
BITMAP
0F00
1880
30C0
30C0
00C0
0180
FFC0
0400
1800
2000
4080
FF00
FF00
ENDCHAR
STARTCHAR uni01BC
ENCODING 444
SWIDTH 530 0
DWIDTH 10 0
BBX 10 13 1 0
BITMAP
1FC0
1F80
1000
1000
1000
2E00
3300
0180
0180
0180
C100
6300
3C00
ENDCHAR
STARTCHAR uni01C0
ENCODING 448
SWIDTH 270 0
DWIDTH 5 0
BBX 1 14 3 0
BITMAP
80
80
80
80
80
80
80
80
80
80
80
80
80
80
ENDCHAR
STARTCHAR uni01C2
ENCODING 450
SWIDTH 570 0
DWIDTH 11 0
BBX 9 14 2 -2
BITMAP
0800
0800
0800
0800
0800
FF80
0800
0800
0800
FF80
0800
0800
0800
0800
ENDCHAR
STARTCHAR uni01C3
ENCODING 451
SWIDTH 240 0
DWIDTH 5 0
BBX 5 14 1 0
BITMAP
18
18
30
30
30
20
20
20
20
40
00
00
C0
C0
ENDCHAR
STARTCHAR uni01CD
ENCODING 461
SWIDTH 624 0
DWIDTH 12 0
BBX 13 18 0 0
BITMAP
0420
03C0
0100
0000
00C0
00C0
0140
0140
0260
0260
0460
0460
0FE0
0860
1020
1020
2030
F0F8
ENDCHAR
STARTCHAR uni01CE
ENCODING 462
SWIDTH 561 0
DWIDTH 11 0
BBX 10 14 1 0
BITMAP
1080
0F00
0400
0000
07C0
18C0
3080
6180
6180
C380
C300
C740
CB40
7380
ENDCHAR
STARTCHAR uni01CF
ENCODING 463
SWIDTH 345 0
DWIDTH 7 0
BBX 8 18 1 0
BITMAP
21
1E
08
00
1F
0C
0C
0C
08
18
18
18
18
10
30
30
30
F8
ENDCHAR
STARTCHAR uni01D0
ENCODING 464
SWIDTH 317 0
DWIDTH 6 0
BBX 6 14 2 0
BITMAP
84
78
20
00
30
F0
30
20
60
60
40
C8
D0
E0
ENDCHAR
STARTCHAR uni01D1
ENCODING 465
SWIDTH 753 0
DWIDTH 15 0
BBX 13 18 2 0
BITMAP
0840
0780
0200
0000
07C0
1820
3030
7018
6018
6018
C018
C018
C030
C030
C030
6060
30C0
1F00
ENDCHAR
STARTCHAR uni01D2
ENCODING 466
SWIDTH 537 0
DWIDTH 10 0
BBX 9 14 2 0
BITMAP
2100
1E00
0800
0000
0E00
3100
6180
6180
E180
C380
C300
C300
4600
3800
ENDCHAR
STARTCHAR uni01D3
ENCODING 467
SWIDTH 794 0
DWIDTH 15 0
BBX 15 18 3 0
BITMAP
0420
03C0
0100
0000
FC7E
3018
3010
6030
6030
6030
6020
4060
C060
C060
C0C0
C0C0
6180
3E00
ENDCHAR
STARTCHAR uni01D4
ENCODING 468
SWIDTH 618 0
DWIDTH 12 0
BBX 11 14 2 0
BITMAP
2100
1E00
0800
0000
3040
F0C0
2080
6180
6180
6380
4300
C720
CB40
F380
ENDCHAR
STARTCHAR uni01D5
ENCODING 469
SWIDTH 794 0
DWIDTH 15 0
BBX 15 18 3 0
BITMAP
0FC0
0000
0660
0660
FC7E
3018
3010
7030
6030
6030
6030
4020
C060
C060
C040
C0C0
6180
3E00
ENDCHAR
STARTCHAR uni01D6
ENCODING 470
SWIDTH 618 0
DWIDTH 12 0
BBX 11 15 2 0
BITMAP
1F80
0000
18C0
18C0
0000
3040
F0C0
20C0
6180
6180
6380
4300
C720
CB40
F380
ENDCHAR
STARTCHAR uni01D7
ENCODING 471
SWIDTH 794 0
DWIDTH 15 0
BBX 15 21 3 0
BITMAP
0040
00C0
0100
0200
0000
0660
0660
FC7E
3018
3010
7030
6030
6030
6030
4020
C060
C060
C040
C0C0
6180
3E00
ENDCHAR
STARTCHAR uni01D8
ENCODING 472
SWIDTH 618 0
DWIDTH 12 0
BBX 11 18 2 0
BITMAP
0080
0180
0200
0400
0000
18C0
18C0
0000
3040
F0C0
20C0
6180
6180
6380
4300
C720
CB40
F380
ENDCHAR
STARTCHAR uni01D9
ENCODING 473
SWIDTH 794 0
DWIDTH 15 0
BBX 15 20 3 0
BITMAP
0420
03C0
0100
0000
0660
0660
FC7E
3018
3010
7030
6030
6030
6030
4020
C060
C060
C040
C0C0
6180
3E00
ENDCHAR
STARTCHAR uni01DA
ENCODING 474
SWIDTH 618 0
DWIDTH 12 0
BBX 11 17 2 0
BITMAP
1080
0F00
0400
0000
18C0
18C0
0000
3040
F0C0
20C0
6180
6180
6380
4300
C720
CB40
F380
ENDCHAR
STARTCHAR uni01DB
ENCODING 475
SWIDTH 794 0
DWIDTH 15 0
BBX 15 21 3 0
BITMAP
0400
0600
0100
0080
0000
0660
0660
FC7E
3018
3010
7030
6030
6030
6030
4020
C060
C060
C040
C0C0
6180
3E00
ENDCHAR
STARTCHAR uni01DC
ENCODING 476
SWIDTH 618 0
DWIDTH 12 0
BBX 11 18 2 0
BITMAP
1000
1800
0400
0200
0000
18C0
18C0
0000
3040
F0C0
20C0
6180
6180
6380
4300
C720
CB40
F380
ENDCHAR
STARTCHAR uni01DD
ENCODING 477
SWIDTH 453 0
DWIDTH 9 0
BBX 8 10 2 0
BITMAP
1E
23
43
03
0F
33
46
C4
C8
70
ENDCHAR
STARTCHAR uni01DE
ENCODING 478
SWIDTH 624 0
DWIDTH 12 0
BBX 12 18 0 0
BITMAP
07E0
0000
0330
0330
00C0
01C0
01C0
02C0
02C0
04C0
04C0
0840
0FE0
1060
1060
2060
2060
F0F0
ENDCHAR
STARTCHAR uni01DF
ENCODING 479
SWIDTH 561 0
DWIDTH 11 0
BBX 10 15 1 0
BITMAP
1F80
0000
0CC0
0CC0
0000
07C0
18C0
3080
6180
6180
C380
C300
C740
CB40
7380
ENDCHAR
STARTCHAR uni01E0
ENCODING 480
SWIDTH 624 0
DWIDTH 12 0
BBX 13 19 0 0
BITMAP
07E0
0000
0180
0180
0000
00C0
00C0
0140
0140
0260
0260
0460
0460
0FE0
0860
1020
1020
2030
F0F8
ENDCHAR
STARTCHAR uni01E1
ENCODING 481
SWIDTH 561 0
DWIDTH 11 0
BBX 10 15 1 0
BITMAP
1F80
0000
0600
0600
0000
07C0
18C0
3080
6180
6180
C380
C300
C740
CB40
7380
ENDCHAR
STARTCHAR uni01E2
ENCODING 482
SWIDTH 880 0
DWIDTH 17 0
BBX 20 16 -1 0
BITMAP
003F00
000000
007FF0
003820
005820
005820
009000
011040
0130C0
03FF80
043080
0C3000
186000
106040
2060C0
F9FF80
ENDCHAR
STARTCHAR uni01E3
ENCODING 483
SWIDTH 779 0
DWIDTH 15 0
BBX 15 12 1 0
BITMAP
07E0
0000
075C
1CE6
30C6
6084
6198
C1E0
C380
C584
C988
70F0
ENDCHAR
STARTCHAR uni01E4
ENCODING 484
SWIDTH 709 0
DWIDTH 14 0
BBX 15 14 2 0
BITMAP
03E0
0C38
3010
7010
6000
6000
C000
C000
C0F8
C030
C1FE
6060
3060
0F80
ENDCHAR
STARTCHAR uni01E5
ENCODING 485
SWIDTH 499 0
DWIDTH 10 0
BBX 12 15 0 -5
BITMAP
0F30
18E0
30C0
30C0
30C0
1180
0F00
1000
3C00
1F80
61C0
FFF0
C0C0
6180
3E00
ENDCHAR
STARTCHAR Gcaron
ENCODING 486
SWIDTH 709 0
DWIDTH 14 0
BBX 13 18 2 0
BITMAP
0840
0780
0200
0000
03E0
0C38
3010
7010
6000
6000
C000
C000
C0F8
C030
C020
6060
3060
0F80
ENDCHAR
STARTCHAR gcaron
ENCODING 487
SWIDTH 499 0
DWIDTH 10 0
BBX 12 19 0 -5
BITMAP
0840
0780
0200
0000
0F30
18E0
30C0
30C0
30C0
1180
0F00
1000
3C00
1F80
61C0
C0C0
C0C0
6180
3E00
ENDCHAR
STARTCHAR uni01E8
ENCODING 488
SWIDTH 650 0
DWIDTH 13 0
BBX 15 18 1 0
BITMAP
0420
03C0
0100
0000
1F3E
0C18
0C20
0C40
0980
0A00
1E00
1E00
1B00
1380
3180
30C0
3060
F830
ENDCHAR
STARTCHAR uni01E9
ENCODING 489
SWIDTH 545 0
DWIDTH 11 0
BBX 10 18 2 0
BITMAP
2100
1E00
0800
0000
0800
3800
1800
1000
30C0
3380
3400
2800
6800
7800
6C00
4C80
C680
C700
ENDCHAR
STARTCHAR uni01EA
ENCODING 490
SWIDTH 753 0
DWIDTH 15 0
BBX 13 18 2 -4
BITMAP
07C0
1820
3030
7018
6018
6018
C018
C018
C030
C030
C030
6060
30C0
1F00
0200
0400
0400
0700
ENDCHAR
STARTCHAR uni01EB
ENCODING 491
SWIDTH 537 0
DWIDTH 10 0
BBX 9 14 2 -4
BITMAP
0E00
3100
6180
6180
E180
C380
C300
C300
4600
3800
0800
1000
1000
1C00
ENDCHAR
STARTCHAR uni01EC
ENCODING 492
SWIDTH 753 0
DWIDTH 15 0
BBX 13 20 2 -4
BITMAP
0FC0
0000
07C0
1820
3030
7018
6018
6018
C018
C018
C030
C030
C030
6060
30C0
1F00
0200
0400
0400
0700
ENDCHAR
STARTCHAR uni01ED
ENCODING 493
SWIDTH 537 0
DWIDTH 10 0
BBX 9 16 2 -4
BITMAP
3F00
0000
0E00
3100
6180
6180
E180
C380
C300
C300
4600
3800
0800
1000
1000
1C00
ENDCHAR
STARTCHAR uni01F0
ENCODING 496
SWIDTH 309 0
DWIDTH 6 0
BBX 9 19 -1 -5
BITMAP
1080
0F00
0400
0000
0200
0E00
0600
0600
0600
0400
0400
0C00
0C00
0C00
0800
1800
1800
D000
6000
ENDCHAR
STARTCHAR uni01F4
ENCODING 500
SWIDTH 709 0
DWIDTH 14 0
BBX 13 19 2 0
BITMAP
0040
00C0
0100
0200
0000
03E0
0C38
3010
7010
6000
6000
C000
C000
C0F8
C030
C020
6060
3060
0F80
ENDCHAR
STARTCHAR uni01F5
ENCODING 501
SWIDTH 499 0
DWIDTH 10 0
BBX 12 20 0 -5
BITMAP
0080
0180
0200
0400
0000
0F30
18E0
30C0
30C0
30C0
1180
0F00
1000
3C00
1F80
61C0
C0C0
C0C0
6180
3E00
ENDCHAR
STARTCHAR uni01F8
ENCODING 504
SWIDTH 763 0
DWIDTH 15 0
BBX 16 19 1 0
BITMAP
0200
0300
0080
0040
0000
3C0F
0E06
0E04
0B04
1304
1184
1188
10C8
20C8
20E8
2070
2070
6030
F030
ENDCHAR
STARTCHAR uni01F9
ENCODING 505
SWIDTH 618 0
DWIDTH 12 0
BBX 10 15 2 0
BITMAP
1000
1800
0400
0200
0000
1380
74C0
38C0
2880
3180
6180
6100
6340
4340
C380
ENDCHAR
STARTCHAR Aringacute
ENCODING 506
SWIDTH 624 0
DWIDTH 12 0
BBX 12 22 0 0
BITMAP
0020
0060
0080
0100
0000
00C0
0120
0120
00C0
00C0
01C0
02C0
02C0
02C0
04C0
0440
0FC0
0860
1060
2060
2060
F0F0
ENDCHAR
STARTCHAR aringacute
ENCODING 507
SWIDTH 561 0
DWIDTH 11 0
BBX 10 20 1 0
BITMAP
0080
0180
0200
0400
0000
0300
0480
0480
0300
0000
07C0
18C0
3080
6180
6180
C380
C300
C740
CB40
7380
ENDCHAR
STARTCHAR AEacute
ENCODING 508
SWIDTH 880 0
DWIDTH 17 0
BBX 20 19 -1 0
BITMAP
000200
000600
000800
001000
000000
007FF0
003820
005820
005820
009000
011040
0130C0
03FF80
043080
0C3000
186000
106040
2060C0
F9FF80
ENDCHAR
STARTCHAR aeacute
ENCODING 509
SWIDTH 779 0
DWIDTH 15 0
BBX 15 15 1 0
BITMAP
0020
0060
0080
0100
0000
075C
1CE6
30C6
6084
6198
C1E0
C380
C584
C988
70F0
ENDCHAR
STARTCHAR Oslashacute
ENCODING 510
SWIDTH 753 0
DWIDTH 15 0
BBX 13 21 2 -1
BITMAP
0040
00C0
0100
0200
0000
0010
07D0
1820
3030
7058
6098
6118
C218
C618
C430
C830
D030
6060
70C0
5F00
8000
ENDCHAR
STARTCHAR oslashacute
ENCODING 511
SWIDTH 537 0
DWIDTH 10 0
BBX 9 15 2 0
BITMAP
0100
0300
0400
0800
0000
0E80
3100
6380
6580
C980
C980
D300
E300
4600
B800
ENDCHAR
STARTCHAR Scommaaccent
ENCODING 536
SWIDTH 533 0
DWIDTH 10 0
BBX 9 20 2 -6
BITMAP
1E00
3180
6100
6100
6000
3000
1C00
0E00
0700
8300
8300
8200
C600
3800
0000
1800
1800
1800
1000
2000
ENDCHAR
STARTCHAR scommaaccent
ENCODING 537
SWIDTH 389 0
DWIDTH 8 0
BBX 8 16 1 -6
BITMAP
1E
23
21
30
18
1C
06
C6
44
38
00
18
18
18
10
20
ENDCHAR
STARTCHAR Tcommaaccent
ENCODING 538
SWIDTH 606 0
DWIDTH 12 0
BBX 12 20 3 -6
BITMAP
FFF0
8420
8C20
0C00
0C00
0C00
1800
1800
1800
1800
1000
3000
3000
FC00
0000
1800
1800
1800
1000
2000
ENDCHAR
STARTCHAR tcommaaccent
ENCODING 539
SWIDTH 341 0
DWIDTH 7 0
BBX 6 19 2 -6
BITMAP
08
10
30
FC
30
20
60
60
60
40
C8
D0
E0
00
60
60
60
40
80
ENDCHAR
STARTCHAR uni021E
ENCODING 542
SWIDTH 775 0
DWIDTH 15 0
BBX 17 18 1 0
BITMAP
010800
00F000
004000
000000
1F1F80
060600
0C0600
0C0400
0C0C00
0C0C00
180C00
1FFC00
180800
181800
181800
301800
303000
FC7C00
ENDCHAR
STARTCHAR uni021F
ENCODING 543
SWIDTH 607 0
DWIDTH 12 0
BBX 10 18 2 0
BITMAP
2100
1E00
0800
0000
0800
3800
1800
1000
3380
34C0
38C0
2880
3180
6180
6100
6340
4340
C380
ENDCHAR
STARTCHAR uni0226
ENCODING 550
SWIDTH 624 0
DWIDTH 12 0
BBX 13 17 0 0
BITMAP
0180
0180
0000
00C0
00C0
0140
0140
0260
0260
0460
0460
0FE0
0860
1020
1020
2030
F0F8
ENDCHAR
STARTCHAR uni0227
ENCODING 551
SWIDTH 561 0
DWIDTH 11 0
BBX 10 13 1 0
BITMAP
0600
0600
0000
07C0
18C0
3080
6180
6180
C380
C300
C740
CB40
7380
ENDCHAR
STARTCHAR uni0228
ENCODING 552
SWIDTH 596 0
DWIDTH 12 0
BBX 13 19 1 -5
BITMAP
3FF8
0C10
0C10
0C10
1800
1820
1860
1FC0
1840
3800
3000
3020
3060
FFC0
0400
0600
0200
0600
0C00
ENDCHAR
STARTCHAR uni0229
ENCODING 553
SWIDTH 453 0
DWIDTH 9 0
BBX 8 15 2 -5
BITMAP
0E
13
23
62
CC
F0
C0
C2
C4
78
20
30
10
30
60
ENDCHAR
STARTCHAR uni022A
ENCODING 554
SWIDTH 753 0
DWIDTH 15 0
BBX 13 18 2 0
BITMAP
0FC0
0000
0330
0330
03C0
0C30
3810
7018
6018
6018
C018
C018
C030
C030
C030
6060
30C0
1F80
ENDCHAR
STARTCHAR uni022B
ENCODING 555
SWIDTH 537 0
DWIDTH 10 0
BBX 9 15 2 0
BITMAP
3F00
0000
1980
1980
0000
1E00
3100
6180
6180
C180
C380
C300
C300
4600
3800
ENDCHAR
STARTCHAR uni022C
ENCODING 556
SWIDTH 753 0
DWIDTH 15 0
BBX 13 18 2 0
BITMAP
0FC0
0000
0310
04E0
07C0
1820
3030
7018
6018
6018
C018
C018
C030
C030
C030
6060
30C0
1F00
ENDCHAR
STARTCHAR uni022D
ENCODING 557
SWIDTH 537 0
DWIDTH 10 0
BBX 9 15 2 0
BITMAP
3F00
0000
1C80
2300
0000
0E00
3100
6180
6180
E180
C380
C300
C300
4600
3800
ENDCHAR
STARTCHAR uni022E
ENCODING 558
SWIDTH 753 0
DWIDTH 15 0
BBX 13 17 2 0
BITMAP
0300
0300
0000
07C0
1820
3030
7018
6018
6018
C018
C018
C030
C030
C030
6060
30C0
1F00
ENDCHAR
STARTCHAR uni022F
ENCODING 559
SWIDTH 537 0
DWIDTH 10 0
BBX 9 13 2 0
BITMAP
0C00
0C00
0000
0E00
3100
6180
6180
E180
C380
C300
C300
4600
3800
ENDCHAR
STARTCHAR uni0230
ENCODING 560
SWIDTH 753 0
DWIDTH 15 0
BBX 13 19 2 0
BITMAP
0FC0
0000
0300
0300
0000
07C0
1820
3030
7018
6018
6018
C018
C018
C030
C030
C030
6060
30C0
1F00
ENDCHAR
STARTCHAR uni0231
ENCODING 561
SWIDTH 537 0
DWIDTH 10 0
BBX 9 15 2 0
BITMAP
3F00
0000
0C00
0C00
0000
0E00
3100
6180
6180
E180
C380
C300
C300
4600
3800
ENDCHAR
STARTCHAR uni0232
ENCODING 562
SWIDTH 591 0
DWIDTH 11 0
BBX 13 16 2 0
BITMAP
1F80
0000
F878
3020
3060
3040
1880
1900
1A00
0E00
0C00
0C00
1800
1800
1800
7E00
ENDCHAR
STARTCHAR uni0233
ENCODING 563
SWIDTH 468 0
DWIDTH 9 0
BBX 11 17 0 -5
BITMAP
1F80
0000
1820
7860
1860
0840
08C0
0C80
0D00
0D00
0E00
0E00
0C00
0800
0800
D000
E000
ENDCHAR
STARTCHAR uni0250
ENCODING 592
SWIDTH 561 0
DWIDTH 11 0
BBX 10 10 1 0
BITMAP
7380
B4C0
B8C0
30C0
70C0
6180
6180
4300
C600
F800
ENDCHAR
STARTCHAR uni0259
ENCODING 601
SWIDTH 453 0
DWIDTH 9 0
BBX 8 10 2 0
BITMAP
1E
23
43
03
0F
33
46
C4
C8
70
ENDCHAR
STARTCHAR uni025F
ENCODING 607
SWIDTH 315 0
DWIDTH 6 0
BBX 12 19 -1 -9
BITMAP
0060
00B0
0080
0180
0100
0100
0300
0300
0300
0300
0200
0600
0600
0600
3F00
0C00
0C00
C800
7000
ENDCHAR
STARTCHAR uni0265
ENCODING 613
SWIDTH 607 0
DWIDTH 12 0
BBX 10 14 2 -4
BITMAP
70C0
B080
B180
2180
6180
6300
4500
C700
CB00
7300
0200
0600
0700
0400
ENDCHAR
STARTCHAR uni0275
ENCODING 629
SWIDTH 537 0
DWIDTH 10 0
BBX 9 10 2 0
BITMAP
0E00
3100
6180
6180
FF80
C380
C300
C300
4600
3800
ENDCHAR
STARTCHAR uni0279
ENCODING 633
SWIDTH 402 0
DWIDTH 8 0
BBX 7 10 2 0
BITMAP
02
06
04
04
0C
0C
18
18
EE
98
ENDCHAR
STARTCHAR uni0287
ENCODING 647
SWIDTH 341 0
DWIDTH 7 0
BBX 6 13 2 0
BITMAP
1C
2C
4C
08
18
18
18
10
30
FC
30
20
40
ENDCHAR
STARTCHAR uni0289
ENCODING 649
SWIDTH 618 0
DWIDTH 12 0
BBX 11 10 2 0
BITMAP
3040
F0C0
2080
6180
FFE0
6380
4300
C720
CB40
F380
ENDCHAR
STARTCHAR uni028C
ENCODING 652
SWIDTH 510 0
DWIDTH 10 0
BBX 9 10 2 0
BITMAP
0300
0D80
1180
2100
2100
4300
4300
C300
C380
8600
ENDCHAR
STARTCHAR uni028D
ENCODING 653
SWIDTH 785 0
DWIDTH 15 0
BBX 15 10 2 0
BITMAP
070C
09B6
11C6
21C4
2184
430C
430C
C308
C30E
4618
ENDCHAR
STARTCHAR uni028E
ENCODING 654
SWIDTH 468 0
DWIDTH 9 0
BBX 11 15 0 0
BITMAP
00E0
0160
0200
0200
0600
0E00
0E00
1600
1600
2600
6200
4200
C300
C3C0
8300
ENDCHAR
STARTCHAR uni029E
ENCODING 670
SWIDTH 545 0
DWIDTH 11 0
BBX 10 14 2 -4
BITMAP
38C0
58C0
4C80
0D80
0780
0580
0500
0B00
7300
C300
0200
0600
0700
0400
ENDCHAR
STARTCHAR uni02BB
ENCODING 699
SWIDTH 216 0
DWIDTH 4 0
BBX 3 5 3 10
BITMAP
20
40
C0
C0
C0
ENDCHAR
STARTCHAR afii57929
ENCODING 700
SWIDTH 216 0
DWIDTH 4 0
BBX 3 5 3 9
BITMAP
60
60
60
40
80
ENDCHAR
STARTCHAR afii64937
ENCODING 701
SWIDTH 216 0
DWIDTH 4 0
BBX 3 5 3 9
BITMAP
C0
C0
C0
40
20
ENDCHAR
STARTCHAR circumflex
ENCODING 710
SWIDTH 400 0
DWIDTH 8 0
BBX 6 3 4 11
BITMAP
10
78
84
ENDCHAR
STARTCHAR caron
ENCODING 711
SWIDTH 400 0
DWIDTH 8 0
BBX 6 3 5 11
BITMAP
84
78
20
ENDCHAR
STARTCHAR uni02C8
ENCODING 712
SWIDTH 216 0
DWIDTH 4 0
BBX 2 5 4 9
BITMAP
C0
C0
80
80
80
ENDCHAR
STARTCHAR macron
ENCODING 713
SWIDTH 400 0
DWIDTH 8 0
BBX 6 1 4 12
BITMAP
FC
ENDCHAR
STARTCHAR uni02CA
ENCODING 714
SWIDTH 400 0
DWIDTH 8 0
BBX 4 4 5 10
BITMAP
10
30
40
80
ENDCHAR
STARTCHAR uni02CB
ENCODING 715
SWIDTH 400 0
DWIDTH 8 0
BBX 4 4 4 10
BITMAP
80
C0
20
10
ENDCHAR
STARTCHAR uni02CD
ENCODING 717
SWIDTH 400 0
DWIDTH 8 0
BBX 6 1 4 -2
BITMAP
FC
ENDCHAR
STARTCHAR uni02CE
ENCODING 718
SWIDTH 400 0
DWIDTH 8 0
BBX 4 4 4 -5
BITMAP
80
C0
20
10
ENDCHAR
STARTCHAR uni02CF
ENCODING 719
SWIDTH 400 0
DWIDTH 8 0
BBX 4 4 5 -5
BITMAP
10
30
40
80
ENDCHAR
STARTCHAR breve
ENCODING 728
SWIDTH 400 0
DWIDTH 8 0
BBX 6 3 5 11
BITMAP
84
88
70
ENDCHAR
STARTCHAR dotaccent
ENCODING 729
SWIDTH 402 0
DWIDTH 8 0
BBX 2 2 6 11
BITMAP
C0
C0
ENDCHAR
STARTCHAR ring
ENCODING 730
SWIDTH 400 0
DWIDTH 8 0
BBX 4 4 4 11
BITMAP
60
90
90
60
ENDCHAR
STARTCHAR ogonek
ENCODING 731
SWIDTH 350 0
DWIDTH 7 0
BBX 3 4 2 -4
BITMAP
40
80
80
E0
ENDCHAR
STARTCHAR tilde
ENCODING 732
SWIDTH 400 0
DWIDTH 8 0
BBX 7 2 3 11
BITMAP
72
8C
ENDCHAR
STARTCHAR hungarumlaut
ENCODING 733
SWIDTH 400 0
DWIDTH 8 0
BBX 5 4 4 11
BITMAP
48
58
D0
A0
ENDCHAR
STARTCHAR uni02EE
ENCODING 750
SWIDTH 402 0
DWIDTH 8 0
BBX 7 5 3 9
BITMAP
66
66
64
44
88
ENDCHAR
STARTCHAR uni037E
ENCODING 894
SWIDTH 265 0
DWIDTH 5 0
BBX 5 12 1 -2
BITMAP
18
38
00
00
00
00
40
60
60
40
80
80
ENDCHAR
STARTCHAR tonos
ENCODING 900
SWIDTH 400 0
DWIDTH 8 0
BBX 4 4 5 10
BITMAP
10
30
40
80
ENDCHAR
STARTCHAR dieresistonos
ENCODING 901
SWIDTH 400 0
DWIDTH 8 0
BBX 6 7 4 11
BITMAP
04
0C
10
20
00
CC
CC
ENDCHAR
STARTCHAR anoteleia
ENCODING 903
SWIDTH 265 0
DWIDTH 5 0
BBX 2 2 3 4
BITMAP
C0
C0
ENDCHAR
STARTCHAR mu
ENCODING 956
SWIDTH 618 0
DWIDTH 12 0
BBX 12 14 1 -4
BITMAP
1820
7860
1840
10C0
10C0
31C0
3180
2390
25A0
79C0
4000
4000
C000
C000
ENDCHAR
STARTCHAR uni1E00
ENCODING 7680
SWIDTH 624 0
DWIDTH 12 0
BBX 13 19 0 -5
BITMAP
00C0
00C0
0140
0140
0260
0260
0460
0460
0FE0
0860
1020
1020
2030
F0F8
0000
0300
0480
0480
0300
ENDCHAR
STARTCHAR uni1E01
ENCODING 7681
SWIDTH 561 0
DWIDTH 11 0
BBX 10 15 1 -5
BITMAP
07C0
18C0
3080
6180
6180
C380
C300
C740
CB40
7380
0000
0C00
1200
1200
0C00
ENDCHAR
STARTCHAR uni1E02
ENCODING 7682
SWIDTH 632 0
DWIDTH 12 0
BBX 12 17 1 0
BITMAP
0300
0300
0000
1FC0
0C60
0C30
0C30
0830
08E0
1F00
18C0
1860
1060
3060
3060
30C0
FF00
ENDCHAR
STARTCHAR uni1E03
ENCODING 7683
SWIDTH 559 0
DWIDTH 11 0
BBX 10 17 2 0
BITMAP
1800
1800
0000
1800
7800
1000
1000
3380
34C0
28C0
30C0
60C0
6180
6180
4300
E600
BC00
ENDCHAR
STARTCHAR uni1E04
ENCODING 7684
SWIDTH 632 0
DWIDTH 12 0
BBX 12 17 1 -3
BITMAP
1FC0
0C60
0C30
0C30
0830
08E0
1F00
18C0
1860
1060
3060
3060
30C0
FF00
0000
0600
0600
ENDCHAR
STARTCHAR uni1E05
ENCODING 7685
SWIDTH 559 0
DWIDTH 11 0
BBX 10 17 2 -3
BITMAP
1800
7800
1000
1000
3380
34C0
28C0
30C0
60C0
6180
6180
4300
E600
BC00
0000
1800
1800
ENDCHAR
STARTCHAR uni1E06
ENCODING 7686
SWIDTH 632 0
DWIDTH 12 0
BBX 12 16 1 -2
BITMAP
1FC0
0C60
0C30
0C30
0830
08E0
1F00
18C0
1860
1060
3060
3060
30C0
FF00
0000
1F80
ENDCHAR
STARTCHAR uni1E07
ENCODING 7687
SWIDTH 559 0
DWIDTH 11 0
BBX 10 16 2 -2
BITMAP
1800
7800
1000
1000
3380
34C0
28C0
30C0
60C0
6180
6180
4300
E600
BC00
0000
7E00
ENDCHAR
STARTCHAR uni1E08
ENCODING 7688
SWIDTH 661 0
DWIDTH 13 0
BBX 13 24 2 -5
BITMAP
0080
0180
0200
0400
0000
07E0
1C38
3010
6010
6000
6000
C000
C000
C000
C000
C020
6040
30C0
0F00
0800
0C00
0400
0600
1C00
ENDCHAR
STARTCHAR uni1E09
ENCODING 7689
SWIDTH 441 0
DWIDTH 9 0
BBX 8 20 2 -5
BITMAP
02
06
08
10
00
0E
33
63
60
C0
C0
C0
C2
C4
78
20
30
10
10
60
ENDCHAR
STARTCHAR uni1E0A
ENCODING 7690
SWIDTH 763 0
DWIDTH 15 0
BBX 15 17 1 0
BITMAP
0180
0180
0000
1FE0
0618
040C
0C06
0C06
0C06
0806
1806
180C
180C
181C
3018
3060
FF80
ENDCHAR
STARTCHAR uni1E0B
ENCODING 7691
SWIDTH 587 0
DWIDTH 11 0
BBX 12 17 1 0
BITMAP
00C0
00C0
0000
0030
00F0
0020
0060
07E0
1C60
3040
60C0
60C0
C1C0
C280
C3A0
CDA0
71C0
ENDCHAR
STARTCHAR uni1E0C
ENCODING 7692
SWIDTH 763 0
DWIDTH 15 0
BBX 15 17 1 -3
BITMAP
1FE0
0618
040C
0C06
0C06
0C06
0806
1806
180C
180C
181C
3018
3060
FF80
0000
0300
0300
ENDCHAR
STARTCHAR uni1E0D
ENCODING 7693
SWIDTH 587 0
DWIDTH 11 0
BBX 12 17 1 -3
BITMAP
0030
00F0
0020
0060
07E0
1C60
3040
60C0
60C0
C1C0
C280
C3A0
CDA0
71C0
0000
0600
0600
ENDCHAR
STARTCHAR uni1E0E
ENCODING 7694
SWIDTH 763 0
DWIDTH 15 0
BBX 15 16 1 -2
BITMAP
1FE0
0618
040C
0C06
0C06
0C06
0806
1806
180C
180C
181C
3018
3060
FF80
0000
0FC0
ENDCHAR
STARTCHAR uni1E0F
ENCODING 7695
SWIDTH 587 0
DWIDTH 11 0
BBX 12 16 1 -2
BITMAP
0030
00F0
0020
0060
07E0
1C60
3040
60C0
60C0
C1C0
C280
C3A0
CDA0
71C0
0000
1F80
ENDCHAR
STARTCHAR uni1E10
ENCODING 7696
SWIDTH 763 0
DWIDTH 15 0
BBX 15 19 1 -5
BITMAP
1FE0
0618
040C
0C06
0C06
0C06
0806
1806
180C
180C
181C
3018
3060
FF80
0200
0300
0100
0300
0600
ENDCHAR
STARTCHAR uni1E11
ENCODING 7697
SWIDTH 587 0
DWIDTH 11 0
BBX 12 19 1 -5
BITMAP
0030
00F0
0020
0060
07E0
1C60
3040
60C0
60C0
C1C0
C280
C3A0
CDA0
73C0
0400
0600
0200
0600
0C00
ENDCHAR
STARTCHAR uni1E12
ENCODING 7698
SWIDTH 763 0
DWIDTH 15 0
BBX 15 18 1 -4
BITMAP
1FE0
0618
040C
0C06
0C06
0C06
0806
1806
180C
180C
181C
3018
3060
FF80
0000
0200
0F00
1080
ENDCHAR
STARTCHAR uni1E13
ENCODING 7699
SWIDTH 587 0
DWIDTH 11 0
BBX 12 18 1 -4
BITMAP
0030
00F0
0020
0060
07E0
1C60
3040
60C0
60C0
C1C0
C280
C3A0
CDA0
71C0
0000
0400
1E00
2100
ENDCHAR
STARTCHAR uni1E14
ENCODING 7700
SWIDTH 596 0
DWIDTH 12 0
BBX 13 21 1 0
BITMAP
0800
0C00
0200
0100
0000
0FC0
0000
3FF8
0C10
0C10
0C10
1800
1820
1860
1FC0
1840
3800
3000
3020
3060
FFC0
ENDCHAR
STARTCHAR uni1E15
ENCODING 7701
SWIDTH 453 0
DWIDTH 9 0
BBX 8 17 2 0
BITMAP
20
30
08
04
00
3F
00
0E
13
23
62
CC
F0
C0
C2
C4
78
ENDCHAR
STARTCHAR uni1E16
ENCODING 7702
SWIDTH 596 0
DWIDTH 12 0
BBX 13 21 1 0
BITMAP
0040
00C0
0100
0200
0000
0FC0
0000
3FF8
0C10
0C10
0C10
1800
1820
1860
1FC0
1840
3800
3000
3020
3060
FFC0
ENDCHAR
STARTCHAR uni1E17
ENCODING 7703
SWIDTH 453 0
DWIDTH 9 0
BBX 8 17 2 0
BITMAP
01
03
04
08
00
3F
00
0E
13
23
62
CC
F0
C0
C2
C4
78
ENDCHAR
STARTCHAR uni1E18
ENCODING 7704
SWIDTH 596 0
DWIDTH 12 0
BBX 13 18 1 -4
BITMAP
3FF8
0C10
0C10
0C10
1800
1820
1860
1FC0
1840
3800
3000
3020
3060
FFC0
0000
0400
1E00
2100
ENDCHAR
STARTCHAR uni1E19
ENCODING 7705
SWIDTH 453 0
DWIDTH 9 0
BBX 8 14 2 -4
BITMAP
0E
13
23
62
CC
F0
C0
C2
C4
78
00
10
78
84
ENDCHAR
STARTCHAR uni1E1A
ENCODING 7706
SWIDTH 596 0
DWIDTH 12 0
BBX 13 17 1 -3
BITMAP
3FF8
0C10
0C10
0C10
1800
1820
1860
1FC0
1840
3800
3000
3020
3060
FFC0
0000
1C80
2300
ENDCHAR
STARTCHAR uni1E1B
ENCODING 7707
SWIDTH 453 0
DWIDTH 9 0
BBX 8 13 2 -3
BITMAP
0E
13
23
62
CC
F0
C0
C2
C4
78
00
72
8C
ENDCHAR
STARTCHAR uni1E1C
ENCODING 7708
SWIDTH 596 0
DWIDTH 12 0
BBX 13 23 1 -5
BITMAP
0840
0880
0700
0000
3FF8
0C10
0C10
0C10
1800
1820
1860
1FC0
1840
3800
3000
3020
3060
FFC0
0400
0600
0200
0600
0C00
ENDCHAR
STARTCHAR uni1E1D
ENCODING 7709
SWIDTH 453 0
DWIDTH 9 0
BBX 8 19 2 -5
BITMAP
21
22
1C
00
0E
13
23
62
CC
F0
C0
C2
C4
78
20
30
10
30
60
ENDCHAR
STARTCHAR uni1E1E
ENCODING 7710
SWIDTH 571 0
DWIDTH 11 0
BBX 13 17 1 0
BITMAP
0300
0300
0000
3FF8
0C10
0C10
0C10
1800
1820
1860
1FC0
1840
3800
3000
3000
3000
FC00
ENDCHAR
STARTCHAR uni1E1F
ENCODING 7711
SWIDTH 315 0
DWIDTH 6 0
BBX 12 22 -1 -5
BITMAP
0300
0300
0000
00E0
0130
0300
0300
0FC0
0600
0600
0600
0400
0C00
0C00
0C00
0C00
0800
0800
1800
1000
D000
6000
ENDCHAR
STARTCHAR uni1E20
ENCODING 7712
SWIDTH 709 0
DWIDTH 14 0
BBX 13 16 2 0
BITMAP
0FC0
0000
03E0
0C38
3010
7010
6000
6000
C000
C000
C0F8
C030
C020
6060
3060
0F80
ENDCHAR
STARTCHAR uni1E21
ENCODING 7713
SWIDTH 499 0
DWIDTH 10 0
BBX 12 17 0 -5
BITMAP
0FC0
0000
0F30
18E0
30C0
30C0
30C0
1180
0F00
1000
3C00
1F80
61C0
C0C0
C0C0
6180
3E00
ENDCHAR
STARTCHAR uni1E22
ENCODING 7714
SWIDTH 775 0
DWIDTH 15 0
BBX 17 17 1 0
BITMAP
00C000
00C000
000000
1F1F80
060600
0C0600
0C0400
0C0C00
0C0C00
180C00
1FFC00
180800
181800
181800
301800
303000
FC7C00
ENDCHAR
STARTCHAR uni1E23
ENCODING 7715
SWIDTH 607 0
DWIDTH 12 0
BBX 10 17 2 0
BITMAP
1800
1800
0000
0800
3800
1800
1000
3380
34C0
38C0
2880
3180
6180
6100
6340
4340
C380
ENDCHAR
STARTCHAR uni1E24
ENCODING 7716
SWIDTH 775 0
DWIDTH 15 0
BBX 17 17 1 -3
BITMAP
1F1F80
060600
0C0600
0C0400
0C0C00
0C0C00
180C00
1FFC00
180800
181800
181800
301800
303000
FC7C00
000000
018000
018000
ENDCHAR
STARTCHAR uni1E25
ENCODING 7717
SWIDTH 607 0
DWIDTH 12 0
BBX 10 17 2 -3
BITMAP
0800
3800
1800
1000
3380
34C0
38C0
2880
3180
6180
6100
6340
4340
C380
0000
0C00
0C00
ENDCHAR
STARTCHAR uni1E26
ENCODING 7718
SWIDTH 775 0
DWIDTH 15 0
BBX 17 17 1 0
BITMAP
033000
033000
000000
1F1F80
060600
0C0600
0C0400
0C0C00
0C0C00
180C00
1FFC00
180800
181800
181800
301800
303000
FC7C00
ENDCHAR
STARTCHAR uni1E27
ENCODING 7719
SWIDTH 607 0
DWIDTH 12 0
BBX 10 17 2 0
BITMAP
6600
6600
0000
0800
3800
1800
1000
3380
34C0
38C0
2880
3180
6180
6100
6340
4340
C380
ENDCHAR
STARTCHAR uni1E28
ENCODING 7720
SWIDTH 775 0
DWIDTH 15 0
BBX 17 19 1 -5
BITMAP
1F1F80
060600
0C0600
0C0400
0C0C00
0C0C00
180C00
1FFC00
180800
181800
181800
301800
303000
FCFC00
010000
018000
008000
018000
030000
ENDCHAR
STARTCHAR uni1E29
ENCODING 7721
SWIDTH 607 0
DWIDTH 12 0
BBX 10 19 2 -5
BITMAP
0800
3800
1800
1000
3380
34C0
38C0
2880
3180
6180
6100
6340
4340
C780
0800
0C00
0400
0C00
1800
ENDCHAR
STARTCHAR uni1E2A
ENCODING 7722
SWIDTH 775 0
DWIDTH 15 0
BBX 17 18 1 -4
BITMAP
1F1F80
060600
0C0600
0C0400
0C0C00
0C0C00
180C00
1FFC00
180800
181800
181800
301800
303000
FC7C00
000000
042000
044000
038000
ENDCHAR
STARTCHAR uni1E2B
ENCODING 7723
SWIDTH 607 0
DWIDTH 12 0
BBX 10 18 2 -4
BITMAP
0800
3800
1800
1000
3380
34C0
38C0
2880
3180
6180
6100
6340
4340
C380
0000
2100
2200
1C00
ENDCHAR
STARTCHAR uni1E2C
ENCODING 7724
SWIDTH 345 0
DWIDTH 7 0
BBX 8 17 1 -3
BITMAP
1F
0C
0C
0C
08
18
18
18
18
10
30
30
30
F8
00
72
8C
ENDCHAR
STARTCHAR uni1E2D
ENCODING 7725
SWIDTH 317 0
DWIDTH 6 0
BBX 7 17 1 -3
BITMAP
0C
0C
00
00
18
78
18
10
30
30
20
64
68
70
00
72
8C
ENDCHAR
STARTCHAR uni1E2E
ENCODING 7726
SWIDTH 345 0
DWIDTH 7 0
BBX 9 21 1 0
BITMAP
0100
0300
0400
0800
0000
1980
1980
1F00
0400
0C00
0C00
0C00
0800
0800
1800
1800
1800
1000
3000
3000
FC00
ENDCHAR
STARTCHAR uni1E2F
ENCODING 7727
SWIDTH 317 0
DWIDTH 6 0
BBX 6 18 2 0
BITMAP
04
0C
10
20
00
CC
CC
00
30
F0
20
20
60
60
40
C8
D0
E0
ENDCHAR
STARTCHAR uni1E30
ENCODING 7728
SWIDTH 650 0
DWIDTH 13 0
BBX 15 19 1 0
BITMAP
0020
0060
0080
0100
0000
1F3E
0C18
0C20
0C40
0980
0A00
1E00
1E00
1B00
1380
3180
30C0
3060
F830
ENDCHAR
STARTCHAR uni1E31
ENCODING 7729
SWIDTH 545 0
DWIDTH 11 0
BBX 10 19 2 0
BITMAP
0200
0600
0800
1000
0000
0800
3800
1800
1000
30C0
3380
3400
2800
6800
7800
6C00
4C80
C680
C700
ENDCHAR
STARTCHAR uni1E32
ENCODING 7730
SWIDTH 650 0
DWIDTH 13 0
BBX 15 17 1 -3
BITMAP
1F3E
0C18
0C20
0C40
0980
0A00
1E00
1E00
1B00
1380
3180
30C0
3060
F830
0000
0600
0600
ENDCHAR
STARTCHAR uni1E33
ENCODING 7731
SWIDTH 545 0
DWIDTH 11 0
BBX 10 17 2 -3
BITMAP
0800
3800
1800
1000
30C0
3380
3400
2800
6800
7800
6C00
4C80
C680
C700
0000
0C00
0C00
ENDCHAR
STARTCHAR uni1E34
ENCODING 7732
SWIDTH 650 0
DWIDTH 13 0
BBX 15 16 1 -2
BITMAP
1F3E
0C18
0C20
0C40
0980
0A00
1E00
1E00
1B00
1380
3180
30C0
3060
F830
0000
1F80
ENDCHAR
STARTCHAR uni1E35
ENCODING 7733
SWIDTH 545 0
DWIDTH 11 0
BBX 10 16 2 -2
BITMAP
0800
3800
1800
1000
30C0
3380
3400
2800
6800
7800
6C00
4C80
C680
C700
0000
3F00
ENDCHAR
STARTCHAR uni1E36
ENCODING 7734
SWIDTH 565 0
DWIDTH 11 0
BBX 11 17 1 -3
BITMAP
1F00
0C00
0C00
0C00
0C00
0800
1800
1800
1800
1000
3020
3020
3040
FFC0
0000
0C00
0C00
ENDCHAR
STARTCHAR uni1E37
ENCODING 7735
SWIDTH 306 0
DWIDTH 6 0
BBX 5 17 2 -3
BITMAP
18
78
18
10
30
30
20
20
60
60
40
C8
D0
E0
00
60
60
ENDCHAR
STARTCHAR uni1E38
ENCODING 7736
SWIDTH 565 0
DWIDTH 11 0
BBX 11 19 1 -3
BITMAP
3F00
0000
1F00
0C00
0C00
0C00
0C00
0800
1800
1800
1800
1000
3020
3020
3040
FFC0
0000
0C00
0C00
ENDCHAR
STARTCHAR uni1E39
ENCODING 7737
SWIDTH 306 0
DWIDTH 6 0
BBX 6 19 2 -3
BITMAP
FC
00
18
78
18
10
30
30
20
20
60
60
40
C8
D0
E0
00
60
60
ENDCHAR
STARTCHAR uni1E3A
ENCODING 7738
SWIDTH 565 0
DWIDTH 11 0
BBX 11 16 1 -2
BITMAP
1F00
0C00
0C00
0C00
0C00
0800
1800
1800
1800
1000
3020
3020
3040
FFC0
0000
3F00
ENDCHAR
STARTCHAR uni1E3B
ENCODING 7739
SWIDTH 306 0
DWIDTH 6 0
BBX 6 16 1 -2
BITMAP
0C
3C
0C
08
18
18
10
10
30
30
20
64
68
70
00
FC
ENDCHAR
STARTCHAR uni1E3C
ENCODING 7740
SWIDTH 565 0
DWIDTH 11 0
BBX 11 18 1 -4
BITMAP
1F00
0C00
0C00
0C00
0C00
0800
1800
1800
1800
1000
3020
3020
3040
FFC0
0000
0400
1E00
2100
ENDCHAR
STARTCHAR uni1E3D
ENCODING 7741
SWIDTH 306 0
DWIDTH 6 0
BBX 6 18 1 -4
BITMAP
0C
3C
0C
08
18
18
10
10
30
30
20
64
68
70
00
10
78
84
ENDCHAR
STARTCHAR uni1E3E
ENCODING 7742
SWIDTH 920 0
DWIDTH 18 0
BBX 19 19 1 0
BITMAP
000800
001800
002000
004000
000000
3C01E0
0E0180
0E0380
0E0580
160580
130900
130B00
131300
132300
232300
21C600
218600
618600
F11F00
ENDCHAR
STARTCHAR uni1E3F
ENCODING 7743
SWIDTH 912 0
DWIDTH 18 0
BBX 16 15 2 0
BITMAP
0020
0060
0080
0100
0000
1B8C
74D6
38E6
38C6
30C4
2184
618C
618D
410D
C30E
ENDCHAR
STARTCHAR uni1E40
ENCODING 7744
SWIDTH 920 0
DWIDTH 18 0
BBX 19 17 1 0
BITMAP
006000
006000
000000
3C01E0
0E0180
0E0380
0E0580
160580
130900
130B00
131300
132300
232300
21C600
218600
618600
F11F00
ENDCHAR
STARTCHAR uni1E41
ENCODING 7745
SWIDTH 912 0
DWIDTH 18 0
BBX 16 13 2 0
BITMAP
0180
0180
0000
1B8C
74D6
38E6
38C6
30C4
2184
618C
618D
410D
C30E
ENDCHAR
STARTCHAR uni1E42
ENCODING 7746
SWIDTH 920 0
DWIDTH 18 0
BBX 19 17 1 -3
BITMAP
3C01E0
0E0180
0E0380
0E0580
160580
130900
130B00
131300
132300
232300
21C600
218600
618600
F11F00
000000
00C000
00C000
ENDCHAR
STARTCHAR uni1E43
ENCODING 7747
SWIDTH 912 0
DWIDTH 18 0
BBX 16 13 2 -3
BITMAP
1B8C
74D6
38E6
38C6
30C4
2184
618C
618D
410D
C30E
0000
00C0
00C0
ENDCHAR
STARTCHAR uni1E44
ENCODING 7748
SWIDTH 763 0
DWIDTH 15 0
BBX 16 17 1 0
BITMAP
0180
0180
0000
3C0F
0E06
0E04
0B04
1304
1184
1188
10C8
20C8
20E8
2070
2070
6030
F030
ENDCHAR
STARTCHAR uni1E45
ENCODING 7749
SWIDTH 618 0
DWIDTH 12 0
BBX 10 13 2 0
BITMAP
0C00
0C00
0000
1380
74C0
38C0
2880
3180
6180
6100
6340
4340
C380
ENDCHAR
STARTCHAR uni1E46
ENCODING 7750
SWIDTH 763 0
DWIDTH 15 0
BBX 16 17 1 -3
BITMAP
3C0F
0E06
0E04
0B04
1304
1184
1188
10C8
20C8
20E8
2070
2070
6030
F030
0000
0300
0300
ENDCHAR
STARTCHAR uni1E47
ENCODING 7751
SWIDTH 618 0
DWIDTH 12 0
BBX 10 13 2 -3
BITMAP
1380
74C0
38C0
2880
3180
6180
6100
6340
4340
C380
0000
0C00
0C00
ENDCHAR
STARTCHAR uni1E48
ENCODING 7752
SWIDTH 763 0
DWIDTH 15 0
BBX 16 16 1 -2
BITMAP
3C0F
0E06
0E04
0B04
1304
1184
1188
10C8
20C8
20E8
2070
2070
6030
F030
0000
0FC0
ENDCHAR
STARTCHAR uni1E49
ENCODING 7753
SWIDTH 618 0
DWIDTH 12 0
BBX 10 12 2 -2
BITMAP
1380
74C0
38C0
2880
3180
6180
6100
6340
4340
C380
0000
3F00
ENDCHAR
STARTCHAR uni1E4A
ENCODING 7754
SWIDTH 763 0
DWIDTH 15 0
BBX 16 18 1 -4
BITMAP
3C0F
0E06
0E04
0B04
1304
1184
1188
10C8
20C8
20E8
2070
2070
6030
F030
0000
0100
0780
0840
ENDCHAR
STARTCHAR uni1E4B
ENCODING 7755
SWIDTH 618 0
DWIDTH 12 0
BBX 10 14 2 -4
BITMAP
1380
74C0
38C0
2880
3180
6180
6100
6340
4340
C380
0000
0400
1E00
2100
ENDCHAR
STARTCHAR uni1E4C
ENCODING 7756
SWIDTH 753 0
DWIDTH 15 0
BBX 13 21 2 0
BITMAP
0040
00C0
0100
0200
0000
0310
04E0
07C0
1820
3030
7018
6018
6018
C018
C018
C030
C030
C030
6060
30C0
1F00
ENDCHAR
STARTCHAR uni1E4D
ENCODING 7757
SWIDTH 537 0
DWIDTH 10 0
BBX 9 18 2 0
BITMAP
0100
0300
0400
0800
0000
1C80
2300
0000
0E00
3100
6180
6180
E180
C380
C300
C300
4600
3800
ENDCHAR
STARTCHAR uni1E4E
ENCODING 7758
SWIDTH 753 0
DWIDTH 15 0
BBX 13 19 2 0
BITMAP
0CC0
0CC0
0000
0310
04E0
07C0
1820
3030
7018
6018
6018
C018
C018
C030
C030
C030
6060
30C0
1F00
ENDCHAR
STARTCHAR uni1E4F
ENCODING 7759
SWIDTH 537 0
DWIDTH 10 0
BBX 9 16 2 0
BITMAP
3300
3300
0000
1C80
2300
0000
0E00
3100
6180
6180
E180
C380
C300
C300
4600
3800
ENDCHAR
STARTCHAR uni1E50
ENCODING 7760
SWIDTH 753 0
DWIDTH 15 0
BBX 13 21 2 0
BITMAP
0800
0C00
0200
0100
0000
0FC0
0000
07C0
1820
3030
7018
6018
6018
C018
C018
C030
C030
C030
6060
30C0
1F00
ENDCHAR
STARTCHAR uni1E51
ENCODING 7761
SWIDTH 537 0
DWIDTH 10 0
BBX 9 17 2 0
BITMAP
2000
3000
0800
0400
0000
3F00
0000
0E00
3100
6180
6180
E180
C380
C300
C300
4600
3800
ENDCHAR
STARTCHAR uni1E52
ENCODING 7762
SWIDTH 753 0
DWIDTH 15 0
BBX 13 21 2 0
BITMAP
0040
00C0
0100
0200
0000
0FC0
0000
07C0
1820
3030
7018
6018
6018
C018
C018
C030
C030
C030
6060
30C0
1F00
ENDCHAR
STARTCHAR uni1E53
ENCODING 7763
SWIDTH 537 0
DWIDTH 10 0
BBX 9 17 2 0
BITMAP
0100
0300
0400
0800
0000
3F00
0000
0E00
3100
6180
6180
E180
C380
C300
C300
4600
3800
ENDCHAR
STARTCHAR uni1E54
ENCODING 7764
SWIDTH 614 0
DWIDTH 12 0
BBX 12 19 1 0
BITMAP
0080
0180
0200
0400
0000
3FC0
0C60
0C30
0C30
1830
1830
1860
18C0
3F80
3800
3000
3000
3000
FC00
ENDCHAR
STARTCHAR uni1E55
ENCODING 7765
SWIDTH 590 0
DWIDTH 11 0
BBX 11 20 1 -5
BITMAP
0080
0180
0200
0400
0000
19C0
7A60
1460
1860
3060
30C0
30C0
2180
6300
7E00
6000
4000
4000
C000
C000
ENDCHAR
STARTCHAR uni1E56
ENCODING 7766
SWIDTH 614 0
DWIDTH 12 0
BBX 12 17 1 0
BITMAP
0300
0300
0000
3FC0
0C60
0C30
0C30
1830
1830
1860
18C0
3F80
3800
3000
3000
3000
FC00
ENDCHAR
STARTCHAR uni1E57
ENCODING 7767
SWIDTH 590 0
DWIDTH 11 0
BBX 11 18 1 -5
BITMAP
0600
0600
0000
19C0
7A60
1460
1860
3060
30C0
30C0
2180
6300
7E00
6000
4000
4000
C000
C000
ENDCHAR
STARTCHAR uni1E58
ENCODING 7768
SWIDTH 640 0
DWIDTH 12 0
BBX 12 17 1 0
BITMAP
0300
0300
0000
1FC0
0C60
0C30
0C30
0830
0860
18C0
1F80
18C0
18C0
30C0
30C0
30C0
F870
ENDCHAR
STARTCHAR uni1E59
ENCODING 7769
SWIDTH 402 0
DWIDTH 8 0
BBX 7 13 2 0
BITMAP
18
18
00
32
EE
30
30
60
60
40
40
C0
80
ENDCHAR
STARTCHAR uni1E5A
ENCODING 7770
SWIDTH 640 0
DWIDTH 12 0
BBX 12 17 1 -3
BITMAP
1FC0
0C60
0C30
0C30
0830
0860
18C0
1F80
18C0
18C0
30C0
30C0
30C0
F870
0000
0600
0600
ENDCHAR
STARTCHAR uni1E5B
ENCODING 7771
SWIDTH 402 0
DWIDTH 8 0
BBX 7 13 2 -3
BITMAP
32
EE
30
30
60
60
40
40
C0
80
00
60
60
ENDCHAR
STARTCHAR uni1E5C
ENCODING 7772
SWIDTH 640 0
DWIDTH 12 0
BBX 12 19 1 -3
BITMAP
0FC0
0000
1FC0
0C60
0C30
0C30
0830
0860
18C0
1F80
18C0
18C0
30C0
30C0
30C0
F870
0000
0600
0600
ENDCHAR
STARTCHAR uni1E5D
ENCODING 7773
SWIDTH 402 0
DWIDTH 8 0
BBX 7 15 2 -3
BITMAP
7E
00
32
EE
30
30
60
60
40
40
C0
80
00
60
60
ENDCHAR
STARTCHAR uni1E5E
ENCODING 7774
SWIDTH 640 0
DWIDTH 12 0
BBX 12 16 1 -2
BITMAP
1FC0
0C60
0C30
0C30
0830
0860
18C0
1F80
18C0
18C0
30C0
30C0
30C0
F870
0000
1F80
ENDCHAR
STARTCHAR uni1E5F
ENCODING 7775
SWIDTH 402 0
DWIDTH 8 0
BBX 8 12 1 -2
BITMAP
19
77
18
18
30
30
20
20
60
40
00
FC
ENDCHAR
STARTCHAR uni1E60
ENCODING 7776
SWIDTH 533 0
DWIDTH 10 0
BBX 9 17 2 0
BITMAP
0C00
0C00
0000
1E00
3180
6100
6100
6000
3000
1C00
0E00
0700
8300
8300
8200
C600
3800
ENDCHAR
STARTCHAR uni1E61
ENCODING 7777
SWIDTH 389 0
DWIDTH 8 0
BBX 8 13 1 0
BITMAP
0C
0C
00
1E
23
21
30
18
1C
06
C6
44
38
ENDCHAR
STARTCHAR uni1E62
ENCODING 7778
SWIDTH 533 0
DWIDTH 10 0
BBX 9 17 2 -3
BITMAP
1E00
3180
6100
6100
6000
3000
1C00
0E00
0700
8300
8300
8200
C600
3800
0000
1800
1800
ENDCHAR
STARTCHAR uni1E63
ENCODING 7779
SWIDTH 389 0
DWIDTH 8 0
BBX 8 13 1 -3
BITMAP
1E
23
21
30
18
1C
06
C6
44
38
00
18
18
ENDCHAR
STARTCHAR uni1E64
ENCODING 7780
SWIDTH 533 0
DWIDTH 10 0
BBX 9 22 2 0
BITMAP
0C00
0C00
0000
0200
0600
0800
1000
0000
1E00
3180
6100
6100
6000
3000
1C00
0E00
0700
8300
8300
8200
C600
3800
ENDCHAR
STARTCHAR uni1E65
ENCODING 7781
SWIDTH 389 0
DWIDTH 8 0
BBX 8 18 1 0
BITMAP
0C
0C
00
02
06
08
10
00
1E
23
21
30
18
1C
06
C6
44
38
ENDCHAR
STARTCHAR uni1E66
ENCODING 7782
SWIDTH 533 0
DWIDTH 10 0
BBX 10 20 2 0
BITMAP
0600
0600
0000
08C0
0700
0200
1E00
3180
6100
6100
6000
3000
1C00
0E00
0700
8300
8300
8200
C600
3800
ENDCHAR
STARTCHAR uni1E67
ENCODING 7783
SWIDTH 389 0
DWIDTH 8 0
BBX 9 18 1 0
BITMAP
0C00
0C00
0000
1080
1900
0E00
0400
0000
1E00
2300
2100
3000
1800
1C00
0600
C600
4400
3800
ENDCHAR
STARTCHAR uni1E68
ENCODING 7784
SWIDTH 533 0
DWIDTH 10 0
BBX 9 20 2 -3
BITMAP
1800
1800
0000
1E00
3180
6100
6100
6000
3000
1C00
0E00
0700
8300
8300
8200
C600
3800
0000
1800
1800
ENDCHAR
STARTCHAR uni1E69
ENCODING 7785
SWIDTH 389 0
DWIDTH 8 0
BBX 8 16 1 -3
BITMAP
0C
0C
00
1E
23
21
30
18
1C
06
C6
44
38
00
18
18
ENDCHAR
STARTCHAR uni1E6A
ENCODING 7786
SWIDTH 606 0
DWIDTH 12 0
BBX 12 17 3 0
BITMAP
0600
0600
0000
FFF0
8420
8C20
0C00
0C00
0C00
1800
1800
1800
1800
1000
3000
3000
FC00
ENDCHAR
STARTCHAR uni1E6B
ENCODING 7787
SWIDTH 341 0
DWIDTH 7 0
BBX 6 16 2 0
BITMAP
30
30
00
08
10
30
FC
30
20
60
60
60
40
C8
D0
E0
ENDCHAR
STARTCHAR uni1E6C
ENCODING 7788
SWIDTH 606 0
DWIDTH 12 0
BBX 12 17 3 -3
BITMAP
FFF0
8420
8C20
0C00
0C00
0C00
1800
1800
1800
1800
1000
3000
3000
FC00
0000
1800
1800
ENDCHAR
STARTCHAR uni1E6D
ENCODING 7789
SWIDTH 341 0
DWIDTH 7 0
BBX 6 16 2 -3
BITMAP
08
10
30
FC
30
20
60
60
60
40
C8
D0
E0
00
60
60
ENDCHAR
STARTCHAR uni1E6E
ENCODING 7790
SWIDTH 606 0
DWIDTH 12 0
BBX 12 16 3 -2
BITMAP
FFF0
8420
8C20
0C00
0C00
0C00
1800
1800
1800
1800
1000
3000
3000
FC00
0000
7E00
ENDCHAR
STARTCHAR uni1E6F
ENCODING 7791
SWIDTH 341 0
DWIDTH 7 0
BBX 7 15 1 -2
BITMAP
04
08
18
7E
18
10
30
30
30
20
64
68
70
00
FC
ENDCHAR
STARTCHAR uni1E70
ENCODING 7792
SWIDTH 606 0
DWIDTH 12 0
BBX 12 18 3 -4
BITMAP
FFF0
8420
8C20
0C00
0C00
0C00
1800
1800
1800
1800
1000
3000
3000
FC00
0000
0800
3C00
4200
ENDCHAR
STARTCHAR uni1E71
ENCODING 7793
SWIDTH 341 0
DWIDTH 7 0
BBX 7 17 1 -4
BITMAP
04
08
18
7E
18
10
30
30
30
20
64
68
70
00
10
78
84
ENDCHAR
STARTCHAR uni1E72
ENCODING 7794
SWIDTH 794 0
DWIDTH 15 0
BBX 15 17 3 -3
BITMAP
FC7E
3018
3010
6030
6030
6030
6020
4060
C060
C060
C0C0
C0C0
6180
3E00
0000
1980
1980
ENDCHAR
STARTCHAR uni1E73
ENCODING 7795
SWIDTH 618 0
DWIDTH 12 0
BBX 11 13 2 -3
BITMAP
3040
F0C0
2080
6180
6180
6380
4300
C720
CB40
F380
0000
3300
3300
ENDCHAR
STARTCHAR uni1E74
ENCODING 7796
SWIDTH 794 0
DWIDTH 15 0
BBX 15 17 3 -3
BITMAP
FC7E
3018
3010
6030
6030
6030
6020
4060
C060
C060
C0C0
C0C0
6180
3E00
0000
1C80
2300
ENDCHAR
STARTCHAR uni1E75
ENCODING 7797
SWIDTH 618 0
DWIDTH 12 0
BBX 11 13 2 -3
BITMAP
3040
F0C0
2080
6180
6180
6380
4300
C720
CB40
F380
0000
1C80
2300
ENDCHAR
STARTCHAR uni1E76
ENCODING 7798
SWIDTH 794 0
DWIDTH 15 0
BBX 15 18 3 -4
BITMAP
FC7E
3018
3010
6030
6030
6030
6020
4060
C060
C060
C0C0
C0C0
6180
3E00
0000
0400
1E00
2100
ENDCHAR
STARTCHAR uni1E77
ENCODING 7799
SWIDTH 618 0
DWIDTH 12 0
BBX 11 14 2 -4
BITMAP
3040
F0C0
2080
6180
6180
6380
4300
C720
CB40
F380
0000
0400
1E00
2100
ENDCHAR
STARTCHAR uni1E78
ENCODING 7800
SWIDTH 794 0
DWIDTH 15 0
BBX 15 22 3 0
BITMAP
0040
00C0
0100
0200
0000
0720
08C0
0000
FC7E
3018
3010
6030
6030
6030
6020
4060
C060
C060
C0C0
C0C0
6180
3E00
ENDCHAR
STARTCHAR uni1E79
ENCODING 7801
SWIDTH 618 0
DWIDTH 12 0
BBX 11 18 2 0
BITMAP
0100
0300
0400
0800
0000
1C80
2300
0000
3040
F0C0
2080
6180
6180
6380
4300
C720
CB40
F380
ENDCHAR
STARTCHAR uni1E7A
ENCODING 7802
SWIDTH 794 0
DWIDTH 15 0
BBX 15 19 3 0
BITMAP
0CC0
0CC0
0000
0FC0
0000
FC7E
3018
3010
6030
6030
6030
6020
4060
C060
C060
C0C0
C0C0
6180
3E00
ENDCHAR
STARTCHAR uni1E7B
ENCODING 7803
SWIDTH 618 0
DWIDTH 12 0
BBX 11 15 2 0
BITMAP
3300
3300
0000
3F00
0000
3040
F0C0
2080
6180
6180
6380
4300
C720
CB40
F380
ENDCHAR
STARTCHAR uni1E7C
ENCODING 7804
SWIDTH 637 0
DWIDTH 12 0
BBX 13 17 3 0
BITMAP
0E40
1180
0000
F878
6020
2060
2040
3080
3080
3100
3100
3200
3200
1400
1400
1800
1000
ENDCHAR
STARTCHAR uni1E7D
ENCODING 7805
SWIDTH 510 0
DWIDTH 10 0
BBX 9 13 2 0
BITMAP
3900
4600
0000
3080
E180
6180
6100
6100
4200
4200
C400
D800
6000
ENDCHAR
STARTCHAR uni1E7E
ENCODING 7806
SWIDTH 637 0
DWIDTH 12 0
BBX 13 17 3 -3
BITMAP
F878
6020
2060
2040
3080
3080
3100
3100
3200
3200
1400
1400
1800
1000
0000
0C00
0C00
ENDCHAR
STARTCHAR uni1E7F
ENCODING 7807
SWIDTH 510 0
DWIDTH 10 0
BBX 9 13 2 -3
BITMAP
3080
E180
6180
6100
6100
4200
4200
C400
D800
6000
0000
3000
3000
ENDCHAR
STARTCHAR Wgrave
ENCODING 7808
SWIDTH 946 0
DWIDTH 18 0
BBX 19 19 2 0
BITMAP
020000
030000
008000
004000
000000
FC01E0
702080
306080
30E100
30E100
316200
316200
326400
326400
342400
342800
382800
303000
303000
ENDCHAR
STARTCHAR wgrave
ENCODING 7809
SWIDTH 785 0
DWIDTH 15 0
BBX 15 15 2 0
BITMAP
0400
0600
0100
0080
0000
30C4
E186
2186
6184
6184
4308
4708
C710
DB20
61C0
ENDCHAR
STARTCHAR Wacute
ENCODING 7810
SWIDTH 946 0
DWIDTH 18 0
BBX 19 19 2 0
BITMAP
002000
006000
008000
010000
000000
FC01E0
702080
306080
30E100
30E100
316200
316200
326400
326400
342400
342800
382800
303000
303000
ENDCHAR
STARTCHAR wacute
ENCODING 7811
SWIDTH 785 0
DWIDTH 15 0
BBX 15 15 2 0
BITMAP
0040
00C0
0100
0200
0000
30C4
E186
2186
6184
6184
4308
4708
C710
DB20
61C0
ENDCHAR
STARTCHAR Wdieresis
ENCODING 7812
SWIDTH 946 0
DWIDTH 18 0
BBX 19 17 2 0
BITMAP
033000
033000
000000
FC01E0
702080
306080
30E100
30E100
316200
316200
326400
326400
342400
342800
382800
303000
303000
ENDCHAR
STARTCHAR wdieresis
ENCODING 7813
SWIDTH 785 0
DWIDTH 15 0
BBX 15 13 2 0
BITMAP
0660
0660
0000
30C4
E186
2186
6184
6184
4308
4708
C710
DB20
61C0
ENDCHAR
STARTCHAR uni1E86
ENCODING 7814
SWIDTH 946 0
DWIDTH 18 0
BBX 19 17 2 0
BITMAP
00C000
00C000
000000
FC01E0
702080
306080
30E100
30E100
316200
316200
326400
326400
342400
342800
382800
303000
303000
ENDCHAR
STARTCHAR uni1E87
ENCODING 7815
SWIDTH 785 0
DWIDTH 15 0
BBX 15 13 2 0
BITMAP
0180
0180
0000
30C4
E186
2186
6184
6184
4308
4708
C710
DB20
61C0
ENDCHAR
STARTCHAR uni1E88
ENCODING 7816
SWIDTH 946 0
DWIDTH 18 0
BBX 19 17 2 -3
BITMAP
FC01E0
702080
306080
30E100
30E100
316200
316200
326400
326400
342400
342800
382800
303000
303000
000000
018000
018000
ENDCHAR
STARTCHAR uni1E89
ENCODING 7817
SWIDTH 785 0
DWIDTH 15 0
BBX 15 13 2 -3
BITMAP
30C4
E186
2186
6184
6184
4308
4708
C710
DB20
61C0
0000
0600
0600
ENDCHAR
STARTCHAR uni1E8A
ENCODING 7818
SWIDTH 632 0
DWIDTH 12 0
BBX 15 17 0 0
BITMAP
0180
0180
0000
1F3E
0E18
0610
0620
0340
0380
0180
0380
0280
04C0
08C0
1060
3060
F8F8
ENDCHAR
STARTCHAR uni1E8B
ENCODING 7819
SWIDTH 516 0
DWIDTH 10 0
BBX 10 13 1 0
BITMAP
0C00
0C00
0000
18C0
79C0
0A00
0A00
0C00
0C00
1400
1640
E680
C300
ENDCHAR
STARTCHAR uni1E8C
ENCODING 7820
SWIDTH 632 0
DWIDTH 12 0
BBX 15 17 0 0
BITMAP
0660
0660
0000
1F3E
0E18
0610
0620
0340
0380
0180
0380
0280
04C0
08C0
1060
3060
F8F8
ENDCHAR
STARTCHAR uni1E8D
ENCODING 7821
SWIDTH 516 0
DWIDTH 10 0
BBX 10 13 1 0
BITMAP
3300
3300
0000
18C0
79C0
0A00
0A00
0C00
0C00
1400
1640
E680
C300
ENDCHAR
STARTCHAR uni1E8E
ENCODING 7822
SWIDTH 591 0
DWIDTH 11 0
BBX 13 17 2 0
BITMAP
0600
0600
0000
F878
3020
3060
3040
1880
1900
1A00
0E00
0C00
0C00
1800
1800
1800
7E00
ENDCHAR
STARTCHAR uni1E8F
ENCODING 7823
SWIDTH 468 0
DWIDTH 9 0
BBX 11 18 0 -5
BITMAP
0600
0600
0000
1820
7860
1860
0840
08C0
0C80
0D00
0D00
0E00
0E00
0C00
0800
0800
D000
E000
ENDCHAR
STARTCHAR uni1E90
ENCODING 7824
SWIDTH 622 0
DWIDTH 12 0
BBX 14 18 0 0
BITMAP
0040
01E0
0210
0000
0FFC
081C
0838
1070
00E0
01C0
0380
0700
0600
0C00
1810
3010
6020
FFE0
ENDCHAR
STARTCHAR uni1E91
ENCODING 7825
SWIDTH 468 0
DWIDTH 9 0
BBX 9 14 1 0
BITMAP
0400
1E00
2100
0000
3F80
4300
4600
0400
0C00
1800
3080
6100
FF00
9E00
ENDCHAR
STARTCHAR uni1E92
ENCODING 7826
SWIDTH 622 0
DWIDTH 12 0
BBX 14 17 0 -3
BITMAP
0FFC
081C
0838
1070
00E0
01C0
0380
0700
0600
0C00
1810
3010
6020
FFE0
0000
0600
0600
ENDCHAR
STARTCHAR uni1E93
ENCODING 7827
SWIDTH 468 0
DWIDTH 9 0
BBX 9 13 1 -3
BITMAP
3F80
4300
4600
0400
0C00
1800
3080
6100
FF00
9E00
0000
1800
1800
ENDCHAR
STARTCHAR uni1E94
ENCODING 7828
SWIDTH 622 0
DWIDTH 12 0
BBX 14 16 0 -2
BITMAP
0FFC
081C
0838
1070
00E0
01C0
0380
0700
0600
0C00
1810
3010
6020
FFE0
0000
1F80
ENDCHAR
STARTCHAR uni1E95
ENCODING 7829
SWIDTH 468 0
DWIDTH 9 0
BBX 9 12 1 -2
BITMAP
3F80
4300
4600
0400
0C00
1800
3080
6100
FF00
9E00
0000
7E00
ENDCHAR
STARTCHAR uni1E96
ENCODING 7830
SWIDTH 607 0
DWIDTH 12 0
BBX 10 16 2 -2
BITMAP
0800
3800
1800
1000
3380
34C0
38C0
2880
3180
6180
6100
6340
4340
C380
0000
3F00
ENDCHAR
STARTCHAR uni1E97
ENCODING 7831
SWIDTH 341 0
DWIDTH 7 0
BBX 6 16 2 0
BITMAP
CC
CC
00
08
10
30
FC
30
20
60
60
60
40
C8
D0
E0
ENDCHAR
STARTCHAR uni1E98
ENCODING 7832
SWIDTH 785 0
DWIDTH 15 0
BBX 15 15 2 0
BITMAP
0180
0240
0240
0180
0000
30C4
E186
2186
6184
6184
4308
4708
C710
DB20
61C0
ENDCHAR
STARTCHAR uni1E99
ENCODING 7833
SWIDTH 468 0
DWIDTH 9 0
BBX 11 20 0 -5
BITMAP
0600
0900
0900
0600
0000
1820
7860
1860
0840
08C0
0C80
0D00
0D00
0E00
0E00
0C00
0800
0800
D000
E000
ENDCHAR
STARTCHAR uni1EA0
ENCODING 7840
SWIDTH 624 0
DWIDTH 12 0
BBX 13 17 0 -3
BITMAP
00C0
00C0
0140
0140
0260
0260
0460
0460
0FE0
0860
1020
1020
2030
F0F8
0000
0300
0300
ENDCHAR
STARTCHAR uni1EA1
ENCODING 7841
SWIDTH 561 0
DWIDTH 11 0
BBX 10 13 1 -3
BITMAP
07C0
18C0
3080
6180
6180
C380
C300
C740
CB40
7380
0000
0C00
0C00
ENDCHAR
STARTCHAR uni1EA4
ENCODING 7844
SWIDTH 624 0
DWIDTH 12 0
BBX 13 22 0 0
BITMAP
0020
0060
0080
0100
0000
0040
00E0
0130
0250
00C0
0140
0160
0260
0260
0460
0460
0FE0
0860
1020
3020
2030
F0F8
ENDCHAR
STARTCHAR uni1EA5
ENCODING 7845
SWIDTH 561 0
DWIDTH 11 0
BBX 10 19 1 0
BITMAP
0080
0180
0200
0400
0000
0100
0380
0CC0
0000
07C0
18C0
3080
6180
6180
C380
C300
C740
CB40
7380
ENDCHAR
STARTCHAR uni1EA6
ENCODING 7846
SWIDTH 624 0
DWIDTH 12 0
BBX 13 22 0 0
BITMAP
0200
0300
0080
0040
0000
0040
00E0
0130
0250
00C0
0140
0160
0260
0260
0460
0460
0FE0
0860
1020
3020
2030
F0F8
ENDCHAR
STARTCHAR uni1EA7
ENCODING 7847
SWIDTH 561 0
DWIDTH 11 0
BBX 10 19 1 0
BITMAP
0800
0C00
0200
0100
0000
0100
0380
0CC0
0000
07C0
18C0
3080
6180
6180
C380
C300
C740
CB40
7380
ENDCHAR
STARTCHAR uni1EAA
ENCODING 7850
SWIDTH 624 0
DWIDTH 12 0
BBX 13 20 0 0
BITMAP
0390
0460
0000
0040
00E0
0130
0250
00C0
0140
0160
0260
0260
0460
0460
0FE0
0860
1020
3020
2030
F0F8
ENDCHAR
STARTCHAR uni1EAB
ENCODING 7851
SWIDTH 561 0
DWIDTH 11 0
BBX 10 17 1 0
BITMAP
0E40
1180
0000
0100
0380
0CC0
0000
07C0
18C0
3080
6180
6180
C380
C300
C740
CB40
7380
ENDCHAR
STARTCHAR uni1EAC
ENCODING 7852
SWIDTH 624 0
DWIDTH 12 0
BBX 13 21 0 -3
BITMAP
0080
03C0
0420
0000
00C0
00C0
0140
0140
0260
0260
0460
0460
0FE0
0860
1020
1020
2030
F0F8
0000
0300
0300
ENDCHAR
STARTCHAR uni1EAD
ENCODING 7853
SWIDTH 561 0
DWIDTH 11 0
BBX 10 17 1 -3
BITMAP
0200
0F00
1080
0000
07C0
18C0
3080
6180
6180
C380
C300
C740
CB40
7380
0000
0C00
0C00
ENDCHAR
STARTCHAR uni1EAE
ENCODING 7854
SWIDTH 624 0
DWIDTH 12 0
BBX 13 23 0 0
BITMAP
0040
00C0
0100
0200
0000
0420
0440
0380
0000
00C0
00C0
0140
0140
0260
0260
0460
0460
0FE0
0860
1020
1020
2030
F0F8
ENDCHAR
STARTCHAR uni1EAF
ENCODING 7855
SWIDTH 561 0
DWIDTH 11 0
BBX 10 19 1 0
BITMAP
0100
0300
0400
0800
0000
1080
1100
0E00
0000
07C0
18C0
3080
6180
6180
C380
C300
C740
CB40
7380
ENDCHAR
STARTCHAR uni1EB0
ENCODING 7856
SWIDTH 624 0
DWIDTH 12 0
BBX 13 23 0 0
BITMAP
0400
0600
0100
0080
0000
0420
0440
0380
0000
00C0
00C0
0140
0140
0260
0260
0460
0460
0FE0
0860
1020
1020
2030
F0F8
ENDCHAR
STARTCHAR uni1EB1
ENCODING 7857
SWIDTH 561 0
DWIDTH 11 0
BBX 10 19 1 0
BITMAP
1000
1800
0400
0200
0000
1080
1100
0E00
0000
07C0
18C0
3080
6180
6180
C380
C300
C740
CB40
7380
ENDCHAR
STARTCHAR uni1EB4
ENCODING 7860
SWIDTH 624 0
DWIDTH 12 0
BBX 13 21 0 0
BITMAP
0720
08C0
0000
0420
0440
0380
0000
00C0
00C0
0140
0140
0260
0260
0460
0460
0FE0
0860
1020
1020
2030
F0F8
ENDCHAR
STARTCHAR uni1EB5
ENCODING 7861
SWIDTH 561 0
DWIDTH 11 0
BBX 10 17 1 0
BITMAP
1C80
2300
0000
1080
1100
0E00
0000
07C0
18C0
3080
6180
6180
C380
C300
C740
CB40
7380
ENDCHAR
STARTCHAR uni1EB6
ENCODING 7862
SWIDTH 624 0
DWIDTH 12 0
BBX 13 21 0 -3
BITMAP
0420
0440
0380
0000
00C0
00C0
0140
0140
0260
0260
0460
0460
0FE0
0860
1020
1020
2030
F0F8
0000
0300
0300
ENDCHAR
STARTCHAR uni1EB7
ENCODING 7863
SWIDTH 561 0
DWIDTH 11 0
BBX 10 17 1 -3
BITMAP
1080
1100
0E00
0000
07C0
18C0
3080
6180
6180
C380
C300
C740
CB40
7380
0000
0C00
0C00
ENDCHAR
STARTCHAR uni1EB8
ENCODING 7864
SWIDTH 596 0
DWIDTH 12 0
BBX 13 17 1 -3
BITMAP
3FF8
0C10
0C10
0C10
1800
1820
1860
1FC0
1840
3800
3000
3020
3060
FFC0
0000
0600
0600
ENDCHAR
STARTCHAR uni1EB9
ENCODING 7865
SWIDTH 453 0
DWIDTH 9 0
BBX 8 13 2 -3
BITMAP
0E
13
23
62
CC
F0
C0
C2
C4
78
00
30
30
ENDCHAR
STARTCHAR uni1EBC
ENCODING 7868
SWIDTH 596 0
DWIDTH 12 0
BBX 13 17 1 0
BITMAP
0720
08C0
0000
3FF8
0C10
0C10
0C10
1800
1820
1860
1FC0
1840
3800
3000
3020
3060
FFC0
ENDCHAR
STARTCHAR uni1EBD
ENCODING 7869
SWIDTH 453 0
DWIDTH 9 0
BBX 9 13 2 0
BITMAP
1C80
2300
0000
0E00
1300
2300
6200
CC00
F000
C000
C200
C400
7800
ENDCHAR
STARTCHAR uni1EBE
ENCODING 7870
SWIDTH 596 0
DWIDTH 12 0
BBX 13 22 1 0
BITMAP
0040
00C0
0100
0200
0000
0080
01C0
0660
3BD8
0C30
0C10
0C10
1800
1820
1860
1FC0
1840
3800
3000
3020
3060
FFC0
ENDCHAR
STARTCHAR uni1EBF
ENCODING 7871
SWIDTH 453 0
DWIDTH 9 0
BBX 8 19 2 0
BITMAP
01
03
04
08
00
04
0E
13
00
0E
13
23
62
CC
F0
C0
C2
C4
78
ENDCHAR
STARTCHAR uni1EC0
ENCODING 7872
SWIDTH 596 0
DWIDTH 12 0
BBX 13 22 1 0
BITMAP
0400
0600
0100
0080
0000
0080
01C0
0660
3BD8
0C30
0C10
0C10
1800
1820
1860
1FC0
1840
3800
3000
3020
3060
FFC0
ENDCHAR
STARTCHAR uni1EC1
ENCODING 7873
SWIDTH 453 0
DWIDTH 9 0
BBX 8 19 2 0
BITMAP
20
30
08
04
00
04
0E
13
00
0E
13
23
62
CC
F0
C0
C2
C4
78
ENDCHAR
STARTCHAR uni1EC4
ENCODING 7876
SWIDTH 596 0
DWIDTH 12 0
BBX 13 20 1 0
BITMAP
0720
08C0
0000
0080
01C0
0660
3BD8
0C30
0C10
0C10
1800
1820
1860
1FC0
1840
3800
3000
3020
3060
FFC0
ENDCHAR
STARTCHAR uni1EC5
ENCODING 7877
SWIDTH 453 0
DWIDTH 9 0
BBX 9 17 2 0
BITMAP
1C80
2300
0000
0400
0E00
1300
0000
0E00
1300
2300
6200
CC00
F000
C000
C200
C400
7800
ENDCHAR
STARTCHAR uni1EC6
ENCODING 7878
SWIDTH 596 0
DWIDTH 12 0
BBX 13 21 1 -3
BITMAP
0100
0780
0840
0000
3FF8
0C10
0C10
0C10
1800
1820
1860
1FC0
1840
3800
3000
3020
3060
FFC0
0000
0600
0600
ENDCHAR
STARTCHAR uni1EC7
ENCODING 7879
SWIDTH 453 0
DWIDTH 9 0
BBX 8 17 2 -3
BITMAP
04
1E
21
00
0E
13
23
62
CC
F0
C0
C2
C4
78
00
30
30
ENDCHAR
STARTCHAR uni1ECA
ENCODING 7882
SWIDTH 345 0
DWIDTH 7 0
BBX 8 17 1 -3
BITMAP
1F
0C
0C
0C
08
18
18
18
18
10
30
30
30
F8
00
30
30
ENDCHAR
STARTCHAR uni1ECB
ENCODING 7883
SWIDTH 317 0
DWIDTH 6 0
BBX 5 17 2 -3
BITMAP
18
18
00
00
30
F0
30
20
60
60
40
C8
D0
E0
00
60
60
ENDCHAR
STARTCHAR uni1ECC
ENCODING 7884
SWIDTH 753 0
DWIDTH 15 0
BBX 13 17 2 -3
BITMAP
07C0
1820
3030
7018
6018
6018
C018
C018
C030
C030
C030
6060
30C0
1F00
0000
0600
0600
ENDCHAR
STARTCHAR uni1ECD
ENCODING 7885
SWIDTH 537 0
DWIDTH 10 0
BBX 9 13 2 -3
BITMAP
0E00
3100
6180
6180
E180
C380
C300
C300
4600
3800
0000
1800
1800
ENDCHAR
STARTCHAR uni1ED0
ENCODING 7888
SWIDTH 753 0
DWIDTH 15 0
BBX 13 22 2 0
BITMAP
0040
00C0
0100
0200
0000
0080
01C0
0260
07E0
1820
3030
7018
6018
6018
C018
C018
C030
C030
C030
6060
30C0
1F00
ENDCHAR
STARTCHAR uni1ED1
ENCODING 7889
SWIDTH 537 0
DWIDTH 10 0
BBX 9 19 2 0
BITMAP
0100
0300
0400
0800
0000
0200
0600
1980
0000
0E00
3100
6180
6180
E180
C380
C300
C300
4600
3800
ENDCHAR
STARTCHAR uni1ED2
ENCODING 7890
SWIDTH 753 0
DWIDTH 15 0
BBX 13 22 2 0
BITMAP
0400
0600
0100
0080
0000
0080
01C0
0260
07E0
1820
3030
7018
6018
6018
C018
C018
C030
C030
C030
6060
30C0
1F00
ENDCHAR
STARTCHAR uni1ED3
ENCODING 7891
SWIDTH 537 0
DWIDTH 10 0
BBX 9 19 2 0
BITMAP
1000
1800
0400
0200
0000
0200
0600
1980
0000
0E00
3100
6180
6180
E180
C380
C300
C300
4600
3800
ENDCHAR
STARTCHAR uni1ED6
ENCODING 7894
SWIDTH 753 0
DWIDTH 15 0
BBX 13 20 2 0
BITMAP
0720
08C0
0000
0080
01C0
0260
07E0
1820
3030
7018
6018
6018
C018
C018
C030
C030
C030
6060
30C0
1F00
ENDCHAR
STARTCHAR uni1ED7
ENCODING 7895
SWIDTH 537 0
DWIDTH 10 0
BBX 9 17 2 0
BITMAP
1C80
2300
0000
0200
0600
1980
0000
0E00
3100
6180
6180
E180
C380
C300
C300
4600
3800
ENDCHAR
STARTCHAR uni1ED8
ENCODING 7896
SWIDTH 753 0
DWIDTH 15 0
BBX 13 21 2 -3
BITMAP
0100
0780
0840
0000
07C0
1820
3030
7018
6018
6018
C018
C018
C030
C030
C030
6060
30C0
1F00
0000
0600
0600
ENDCHAR
STARTCHAR uni1ED9
ENCODING 7897
SWIDTH 537 0
DWIDTH 10 0
BBX 9 17 2 -3
BITMAP
0400
1E00
2100
0000
0E00
3100
6180
6180
E180
C380
C300
C300
4600
3800
0000
1800
1800
ENDCHAR
STARTCHAR uni1EDA
ENCODING 7898
SWIDTH 753 0
DWIDTH 15 0
BBX 15 19 2 0
BITMAP
0020
0060
0080
0100
0000
07C6
1826
3036
701C
6018
6018
C018
C018
C030
C030
C030
6060
30C0
1F00
ENDCHAR
STARTCHAR uni1EDB
ENCODING 7899
SWIDTH 537 0
DWIDTH 10 0
BBX 11 15 2 0
BITMAP
0080
0180
0200
0400
0000
0E60
3160
61E0
61C0
E180
C380
C300
C300
4600
3800
ENDCHAR
STARTCHAR uni1EDC
ENCODING 7900
SWIDTH 753 0
DWIDTH 15 0
BBX 15 19 2 0
BITMAP
0200
0300
0080
0040
0000
07C6
1826
3036
701C
6018
6018
C018
C018
C030
C030
C030
6060
30C0
1F00
ENDCHAR
STARTCHAR uni1EDD
ENCODING 7901
SWIDTH 537 0
DWIDTH 10 0
BBX 11 15 2 0
BITMAP
0800
0C00
0200
0100
0000
0E60
3160
61E0
61C0
E180
C380
C300
C300
4600
3800
ENDCHAR
STARTCHAR uni1EE0
ENCODING 7904
SWIDTH 753 0
DWIDTH 15 0
BBX 15 17 2 0
BITMAP
0390
0460
0000
07C6
1826
3036
701C
6018
6018
C018
C018
C030
C030
C030
6060
30C0
1F00
ENDCHAR
STARTCHAR uni1EE1
ENCODING 7905
SWIDTH 537 0
DWIDTH 10 0
BBX 11 13 2 0
BITMAP
0E40
1180
0000
0E60
3160
61E0
61C0
E180
C380
C300
C300
4600
3800
ENDCHAR
STARTCHAR uni1EE2
ENCODING 7906
SWIDTH 753 0
DWIDTH 15 0
BBX 15 17 2 -3
BITMAP
07C6
1826
3036
701C
6018
6018
C018
C018
C030
C030
C030
6060
30C0
1F00
0000
0600
0600
ENDCHAR
STARTCHAR uni1EE3
ENCODING 7907
SWIDTH 537 0
DWIDTH 10 0
BBX 11 13 2 -3
BITMAP
0E60
3160
61E0
61C0
E180
C380
C300
C300
4600
3800
0000
0C00
0C00
ENDCHAR
STARTCHAR uni1EE4
ENCODING 7908
SWIDTH 794 0
DWIDTH 15 0
BBX 15 17 3 -3
BITMAP
FC7E
3018
3010
6030
6030
6030
6020
4060
C060
C060
C0C0
C0C0
6180
3E00
0000
0600
0600
ENDCHAR
STARTCHAR uni1EE5
ENCODING 7909
SWIDTH 618 0
DWIDTH 12 0
BBX 11 13 2 -3
BITMAP
3040
F0C0
2080
6180
6180
6380
4300
C720
CB40
F380
0000
0C00
0C00
ENDCHAR
STARTCHAR uni1EE8
ENCODING 7912
SWIDTH 794 0
DWIDTH 15 0
BBX 17 19 3 0
BITMAP
001000
003000
004000
008000
000000
FC7F80
301980
301180
603100
603200
603000
602000
406000
C06000
C06000
C0C000
C0C000
618000
3E0000
ENDCHAR
STARTCHAR uni1EE9
ENCODING 7913
SWIDTH 618 0
DWIDTH 12 0
BBX 13 15 2 0
BITMAP
0040
00C0
0100
0200
0000
3058
F0D8
2098
6190
61A0
6380
4300
C720
CB40
F380
ENDCHAR
STARTCHAR uni1EEA
ENCODING 7914
SWIDTH 794 0
DWIDTH 15 0
BBX 17 19 3 0
BITMAP
020000
030000
008000
004000
000000
FC7F80
301980
301180
603100
603200
603000
602000
406000
C06000
C06000
C0C000
C0C000
618000
3E0000
ENDCHAR
STARTCHAR uni1EEB
ENCODING 7915
SWIDTH 618 0
DWIDTH 12 0
BBX 13 15 2 0
BITMAP
0800
0C00
0200
0100
0000
3058
F0D8
2098
6190
61A0
6380
4300
C720
CB40
F380
ENDCHAR
STARTCHAR uni1EEE
ENCODING 7918
SWIDTH 794 0
DWIDTH 15 0
BBX 17 17 3 0
BITMAP
039000
046000
000000
FC7F80
301980
301180
603100
603200
603000
602000
406000
C06000
C06000
C0C000
C0C000
618000
3E0000
ENDCHAR
STARTCHAR uni1EEF
ENCODING 7919
SWIDTH 618 0
DWIDTH 12 0
BBX 13 13 2 0
BITMAP
0720
08C0
0000
3058
F0D8
2098
6190
61A0
6380
4300
C720
CB40
F380
ENDCHAR
STARTCHAR uni1EF0
ENCODING 7920
SWIDTH 794 0
DWIDTH 15 0
BBX 17 17 3 -3
BITMAP
FC7F80
301980
301180
603100
603200
603000
602000
406000
C06000
C06000
C0C000
C0C000
618000
3E0000
000000
060000
060000
ENDCHAR
STARTCHAR uni1EF1
ENCODING 7921
SWIDTH 618 0
DWIDTH 12 0
BBX 13 13 2 -3
BITMAP
3058
F0D8
2098
6190
61A0
6380
4300
C720
CB40
F380
0000
0C00
0C00
ENDCHAR
STARTCHAR Ygrave
ENCODING 7922
SWIDTH 591 0
DWIDTH 11 0
BBX 13 19 2 0
BITMAP
0800
0C00
0200
0100
0000
F878
3020
3060
3040
1880
1900
1A00
0E00
0C00
0C00
1800
1800
1800
7E00
ENDCHAR
STARTCHAR ygrave
ENCODING 7923
SWIDTH 468 0
DWIDTH 9 0
BBX 11 20 0 -5
BITMAP
1000
1800
0400
0200
0000
1820
7860
1860
0840
08C0
0C80
0D00
0D00
0E00
0E00
0C00
0800
0800
D000
E000
ENDCHAR
STARTCHAR uni1EF4
ENCODING 7924
SWIDTH 591 0
DWIDTH 11 0
BBX 13 17 2 -3
BITMAP
F878
3020
3060
3040
1880
1900
1A00
0E00
0C00
0C00
1800
1800
1800
7E00
0000
0C00
0C00
ENDCHAR
STARTCHAR uni1EF5
ENCODING 7925
SWIDTH 468 0
DWIDTH 9 0
BBX 11 18 0 -8
BITMAP
1820
7860
1860
0840
08C0
0C80
0D00
0D00
0E00
0E00
0C00
0800
0800
D000
E000
0000
3000
3000
ENDCHAR
STARTCHAR uni1EF8
ENCODING 7928
SWIDTH 591 0
DWIDTH 11 0
BBX 13 17 2 0
BITMAP
0E40
1180
0000
F878
3020
3060
3040
1880
1900
1A00
0E00
0C00
0C00
1800
1800
1800
7E00
ENDCHAR
STARTCHAR uni1EF9
ENCODING 7929
SWIDTH 468 0
DWIDTH 9 0
BBX 11 18 0 -5
BITMAP
1C80
2300
0000
1820
7860
1860
0840
08C0
0C80
0D00
0D00
0E00
0E00
0C00
0800
0800
D000
E000
ENDCHAR
STARTCHAR uni2000
ENCODING 8192
SWIDTH 500 0
DWIDTH 10 0
BBX 1 1 0 0
BITMAP
00
ENDCHAR
STARTCHAR uni2001
ENCODING 8193
SWIDTH 1000 0
DWIDTH 19 0
BBX 1 1 0 0
BITMAP
00
ENDCHAR
STARTCHAR uni2002
ENCODING 8194
SWIDTH 500 0
DWIDTH 10 0
BBX 1 1 0 0
BITMAP
00
ENDCHAR
STARTCHAR uni2003
ENCODING 8195
SWIDTH 1000 0
DWIDTH 19 0
BBX 1 1 0 0
BITMAP
00
ENDCHAR
STARTCHAR uni2004
ENCODING 8196
SWIDTH 333 0
DWIDTH 6 0
BBX 1 1 0 0
BITMAP
00
ENDCHAR
STARTCHAR uni2005
ENCODING 8197
SWIDTH 250 0
DWIDTH 5 0
BBX 1 1 0 0
BITMAP
00
ENDCHAR
STARTCHAR uni2006
ENCODING 8198
SWIDTH 167 0
DWIDTH 3 0
BBX 1 1 0 0
BITMAP
00
ENDCHAR
STARTCHAR uni2007
ENCODING 8199
SWIDTH 530 0
DWIDTH 10 0
BBX 1 1 0 0
BITMAP
00
ENDCHAR
STARTCHAR uni2008
ENCODING 8200
SWIDTH 265 0
DWIDTH 5 0
BBX 1 1 0 0
BITMAP
00
ENDCHAR
STARTCHAR uni2009
ENCODING 8201
SWIDTH 200 0
DWIDTH 4 0
BBX 1 1 0 0
BITMAP
00
ENDCHAR
STARTCHAR uni200A
ENCODING 8202
SWIDTH 100 0
DWIDTH 2 0
BBX 1 1 0 0
BITMAP
00
ENDCHAR
STARTCHAR uni200B
ENCODING 8203
SWIDTH 0 0
DWIDTH 0 0
BBX 1 1 0 0
BITMAP
00
ENDCHAR
STARTCHAR uni2010
ENCODING 8208
SWIDTH 392 0
DWIDTH 8 0
BBX 5 1 2 4
BITMAP
F8
ENDCHAR
STARTCHAR uni2011
ENCODING 8209
SWIDTH 392 0
DWIDTH 8 0
BBX 5 1 2 4
BITMAP
F8
ENDCHAR
STARTCHAR figuredash
ENCODING 8210
SWIDTH 500 0
DWIDTH 10 0
BBX 10 1 1 4
BITMAP
FFC0
ENDCHAR
STARTCHAR endash
ENCODING 8211
SWIDTH 500 0
DWIDTH 10 0
BBX 10 1 1 4
BITMAP
FFC0
ENDCHAR
STARTCHAR emdash
ENCODING 8212
SWIDTH 1000 0
DWIDTH 19 0
BBX 20 1 1 4
BITMAP
FFFFF0
ENDCHAR
STARTCHAR afii00208
ENCODING 8213
SWIDTH 1000 0
DWIDTH 19 0
BBX 20 1 1 4
BITMAP
FFFFF0
ENDCHAR
STARTCHAR quoteleft
ENCODING 8216
SWIDTH 216 0
DWIDTH 4 0
BBX 3 5 3 10
BITMAP
20
40
C0
C0
C0
ENDCHAR
STARTCHAR quoteright
ENCODING 8217
SWIDTH 216 0
DWIDTH 4 0
BBX 3 5 3 9
BITMAP
60
60
60
40
80
ENDCHAR
STARTCHAR quotesinglbase
ENCODING 8218
SWIDTH 216 0
DWIDTH 4 0
BBX 3 5 1 -2
BITMAP
60
60
60
40
80
ENDCHAR
STARTCHAR quotereversed
ENCODING 8219
SWIDTH 216 0
DWIDTH 4 0
BBX 3 5 3 9
BITMAP
C0
C0
C0
40
20
ENDCHAR
STARTCHAR quotedblleft
ENCODING 8220
SWIDTH 402 0
DWIDTH 8 0
BBX 7 5 3 10
BITMAP
22
44
CC
CC
CC
ENDCHAR
STARTCHAR quotedblright
ENCODING 8221
SWIDTH 402 0
DWIDTH 8 0
BBX 7 5 3 9
BITMAP
66
66
64
44
88
ENDCHAR
STARTCHAR quotedblbase
ENCODING 8222
SWIDTH 402 0
DWIDTH 8 0
BBX 7 5 0 -2
BITMAP
66
66
64
44
88
ENDCHAR
STARTCHAR uni201F
ENCODING 8223
SWIDTH 402 0
DWIDTH 8 0
BBX 7 5 3 9
BITMAP
CC
CC
4C
44
22
ENDCHAR
STARTCHAR dagger
ENCODING 8224
SWIDTH 500 0
DWIDTH 10 0
BBX 8 17 3 -2
BITMAP
04
0C
08
18
18
FF
10
30
30
20
20
20
20
40
40
40
40
ENDCHAR
STARTCHAR daggerdbl
ENCODING 8225
SWIDTH 490 0
DWIDTH 10 0
BBX 8 17 2 -3
BITMAP
0C
0C
0C
08
7F
08
08
18
10
10
10
FE
10
30
30
30
20
ENDCHAR
STARTCHAR bullet
ENCODING 8226
SWIDTH 500 0
DWIDTH 10 0
BBX 6 6 3 4
BITMAP
30
78
FC
FC
78
30
ENDCHAR
STARTCHAR ellipsis
ENCODING 8230
SWIDTH 1000 0
DWIDTH 19 0
BBX 14 2 3 0
BITMAP
C30C
C30C
ENDCHAR
STARTCHAR perthousand
ENCODING 8240
SWIDTH 1200 0
DWIDTH 23 0
BBX 22 14 2 -1
BITMAP
3C0800
67F000
462000
C62000
C44000
4C8000
797878
02C8C8
048C8C
098D8C
118988
109898
20F0F0
400000
ENDCHAR
STARTCHAR guilsinglleft
ENCODING 8249
SWIDTH 277 0
DWIDTH 5 0
BBX 4 8 2 1
BITMAP
10
20
60
C0
C0
40
20
20
ENDCHAR
STARTCHAR guilsinglright
ENCODING 8250
SWIDTH 277 0
DWIDTH 5 0
BBX 4 8 1 1
BITMAP
40
40
20
30
30
60
40
80
ENDCHAR
STARTCHAR fraction
ENCODING 8260
SWIDTH 100 0
DWIDTH 2 0
BBX 11 15 -3 -1
BITMAP
0020
0060
00C0
0080
0100
0300
0600
0400
0800
1800
3000
2000
4000
C000
8000
ENDCHAR
STARTCHAR oneinferior
ENCODING 8321
SWIDTH 370 0
DWIDTH 7 0
BBX 5 8 2 -5
BITMAP
18
38
10
10
30
30
20
F8
ENDCHAR
STARTCHAR twoinferior
ENCODING 8322
SWIDTH 370 0
DWIDTH 7 0
BBX 8 8 1 -5
BITMAP
1E
32
23
06
0C
10
62
FE
ENDCHAR
STARTCHAR threeinferior
ENCODING 8323
SWIDTH 370 0
DWIDTH 7 0
BBX 6 8 2 -5
BITMAP
38
CC
08
78
08
8C
C8
70
ENDCHAR
STARTCHAR uni20A5
ENCODING 8357
SWIDTH 912 0
DWIDTH 18 0
BBX 16 14 2 -2
BITMAP
0030
0020
1BAC
74F6
38E6
38C6
30C4
2184
618C
618D
430D
C30E
0200
0600
ENDCHAR
STARTCHAR uni20A6
ENCODING 8358
SWIDTH 763 0
DWIDTH 15 0
BBX 16 14 1 0
BITMAP
3C0F
0E06
0E04
0B04
1FFC
1184
1188
10C8
2FF8
20E8
2070
2070
6030
F030
ENDCHAR
STARTCHAR uni20A9
ENCODING 8361
SWIDTH 946 0
DWIDTH 18 0
BBX 19 14 2 0
BITMAP
FC01E0
702080
306080
30E100
37FD00
316200
316200
326400
37FC00
342400
342800
382800
303000
303000
ENDCHAR
STARTCHAR Euro
ENCODING 8364
SWIDTH 661 0
DWIDTH 13 0
BBX 14 14 1 0
BITMAP
03F0
0E1C
1808
3008
FF80
3000
6000
6000
FF80
6000
6010
3020
1860
0780
ENDCHAR
STARTCHAR uni20AD
ENCODING 8365
SWIDTH 650 0
DWIDTH 13 0
BBX 15 14 1 0
BITMAP
1F3E
0C18
0C20
0C40
0980
0A00
FFFE
1E00
1B00
1380
3180
30C0
3060
F830
ENDCHAR
STARTCHAR uni2103
ENCODING 8451
SWIDTH 1041 0
DWIDTH 21 0
BBX 19 14 4 0
BITMAP
001F80
7070E0
88C040
898040
898000
718000
030000
030000
030000
030000
030080
018100
00C300
003C00
ENDCHAR
STARTCHAR uni2109
ENCODING 8457
SWIDTH 951 0
DWIDTH 19 0
BBX 18 14 4 0
BITMAP
01FFC0
706080
886080
886080
88C000
70C100
00C300
00FE00
00C200
01C000
018000
018000
018000
07E000
ENDCHAR
STARTCHAR trademark
ENCODING 8482
SWIDTH 1100 0
DWIDTH 21 0
BBX 21 9 2 5
BITMAP
FF7078
9938E0
1828E0
182CE0
182D60
182760
182660
182660
3C72F0
ENDCHAR
STARTCHAR uni212A
ENCODING 8490
SWIDTH 650 0
DWIDTH 13 0
BBX 15 14 1 0
BITMAP
1F3E
0C18
0C20
0C40
0980
0A00
1E00
1E00
1B00
1380
3180
30C0
3060
F830
ENDCHAR
STARTCHAR uni212B
ENCODING 8491
SWIDTH 624 0
DWIDTH 12 0
BBX 12 17 0 0
BITMAP
00C0
0120
0120
00C0
00C0
01C0
02C0
02C0
02C0
04C0
0440
0FC0
0860
1060
2060
2060
F0F0
ENDCHAR
STARTCHAR uni2132
ENCODING 8498
SWIDTH 571 0
DWIDTH 11 0
BBX 13 14 1 0
BITMAP
01F8
0060
0060
0060
00E0
10C0
1FC0
30C0
20C0
00C0
4180
4180
4180
FFE0
ENDCHAR
STARTCHAR minus
ENCODING 8722
SWIDTH 570 0
DWIDTH 11 0
BBX 9 1 2 4
BITMAP
FF80
ENDCHAR
STARTCHAR fraction
ENCODING 8725
SWIDTH 100 0
DWIDTH 2 0
BBX 11 15 -3 -1
BITMAP
0020
0060
00C0
0080
0100
0300
0600
0400
0800
1800
3000
2000
4000
C000
8000
ENDCHAR
STARTCHAR periodcentered
ENCODING 8729
SWIDTH 265 0
DWIDTH 5 0
BBX 2 2 3 4
BITMAP
C0
C0
ENDCHAR
STARTCHAR uni2236
ENCODING 8758
SWIDTH 265 0
DWIDTH 5 0
BBX 4 10 2 0
BITMAP
30
30
20
00
00
00
00
40
C0
C0
ENDCHAR
STARTCHAR uni2259
ENCODING 8793
SWIDTH 570 0
DWIDTH 11 0
BBX 9 9 2 2
BITMAP
0400
1E00
2100
0000
FF80
0000
0000
0000
FF80
ENDCHAR
STARTCHAR uni225A
ENCODING 8794
SWIDTH 570 0
DWIDTH 11 0
BBX 9 9 2 2
BITMAP
2100
1E00
0800
0000
FF80
0000
0000
0000
FF80
ENDCHAR
STARTCHAR notequal
ENCODING 8800
SWIDTH 570 0
DWIDTH 11 0
BBX 9 14 2 -2
BITMAP
0300
0200
0200
0600
0400
FF80
0800
0800
1800
FF80
3000
2000
2000
6000
ENDCHAR
STARTCHAR equivalence
ENCODING 8801
SWIDTH 570 0
DWIDTH 11 0
BBX 9 5 0 2
BITMAP
FF80
0000
FF80
0000
FF80
ENDCHAR
STARTCHAR uni2262
ENCODING 8802
SWIDTH 570 0
DWIDTH 11 0
BBX 9 14 0 -2
BITMAP
0300
0200
0200
0600
0400
FF80
0800
FF80
1800
FF80
3000
2000
2000
6000
ENDCHAR
STARTCHAR lessequal
ENCODING 8804
SWIDTH 570 0
DWIDTH 11 0
BBX 9 12 2 -2
BITMAP
0080
0380
0F00
3800
E000
8000
7000
1C00
0700
0080
0000
FF80
ENDCHAR
STARTCHAR greaterequal
ENCODING 8805
SWIDTH 570 0
DWIDTH 11 0
BBX 9 12 2 -2
BITMAP
8000
E000
7800
0E00
0380
0080
0700
1C00
7000
8000
0000
FF80
ENDCHAR
STARTCHAR uni226E
ENCODING 8814
SWIDTH 570 0
DWIDTH 11 0
BBX 9 14 2 -2
BITMAP
0300
0200
0280
0780
0F00
3C00
E800
8800
7800
1C00
3700
2080
2000
6000
ENDCHAR
STARTCHAR uni226F
ENCODING 8815
SWIDTH 570 0
DWIDTH 11 0
BBX 9 14 2 -2
BITMAP
0300
0200
8200
E600
7C00
0E00
0B80
0880
1F00
1C00
7000
A000
2000
6000
ENDCHAR
STARTCHAR uni2270
ENCODING 8816
SWIDTH 570 0
DWIDTH 11 0
BBX 9 14 2 -3
BITMAP
0300
0280
0380
0F00
3C00
EC00
8800
7800
1C00
1700
3080
2000
FF80
6000
ENDCHAR
STARTCHAR uni2271
ENCODING 8817
SWIDTH 570 0
DWIDTH 11 0
BBX 9 14 2 -3
BITMAP
0300
8200
E200
7E00
0E00
0F80
0880
0F00
1C00
7000
B000
2000
FF80
6000
ENDCHAR
STARTCHAR fi
ENCODING -1
SWIDTH 607 0
DWIDTH 12 0
BBX 13 19 -1 -5
BITMAP
00E0
0198
0310
0200
1FF8
0610
0610
0430
0430
0C20
0C20
0C68
0870
0860
1800
1800
1000
D000
E000
ENDCHAR
STARTCHAR fl
ENCODING -1
SWIDTH 603 0
DWIDTH 12 0
BBX 14 19 -1 -5
BITMAP
00FC
011C
030C
0618
1F98
0618
0610
0430
0C30
0C30
0C20
0868
0868
1870
1800
1000
1000
9000
E000
ENDCHAR
ENDFONT
